<svg xmlns="http://www.w3.org/2000/svg" xmlns:xlink="http://www.w3.org/1999/xlink" width="1171" height="786" viewBox="0 0 1171 786">
    <defs>
        <path id="a" d="M.436.486h680.557v785.396H.436z"/>
        <path id="c" d="M.865.486h680.668v785.396H.865z"/>
        <path id="e" d="M.406.486h680.556v785.396H.406z"/>
        <path id="g" d="M.835.486H603v785.396H.835z"/>
    </defs>
    <g fill="none" fill-rule="evenodd" opacity=".804">
        <g>
            <mask id="b" fill="#fff">
                <use xlink:href="#a"/>
            </mask>
            <path fill="#181818" d="M.436 723.569c70.379-35.728 138.256-83.584 202.432-131.42 81.351-60.639 154.552-129.791 217.92-205.833l-71.55-71.574 23.968-22.444C466.291 205.15 543.568 107.074 603.174.486L680.993-11.1l-11.1 20.85C610.545 121.222 533.2 224.106 439.727 315.974l65.713 65.734-17.657 22.217c-70.739 89-154.005 169.462-247.493 239.144C164.688 699.42 84.14 747.327.436 785.882V723.57z" mask="url(#b)"/>
        </g>
        <g transform="translate(189)">
            <mask id="d" fill="#fff">
                <use xlink:href="#c"/>
            </mask>
            <path fill="#181818" d="M.865 723.569c70.39-35.728 138.279-83.584 202.466-131.42 81.364-60.639 154.576-129.791 217.955-205.833l-71.562-71.574 23.972-22.444c93.1-87.148 170.39-185.224 230.006-291.812L681.533-11.1l-11.1 20.85c-59.359 111.472-136.718 214.356-230.205 306.224l65.724 65.734-17.66 22.217c-70.75 89-154.032 169.462-247.534 239.144C165.144 699.42 84.582 747.327.865 785.882V723.57z" mask="url(#d)"/>
        </g>
        <g transform="translate(379)">
            <mask id="f" fill="#fff">
                <use xlink:href="#e"/>
            </mask>
            <path fill="#181818" d="M.406 723.569c70.378-35.728 138.256-83.584 202.431-131.42 81.352-60.639 154.552-129.791 217.92-205.833l-71.55-71.574 23.969-22.444C466.26 205.15 543.538 107.074 603.143.486l77.82-11.586-11.1 20.85c-59.348 111.472-136.695 214.356-230.167 306.224l65.714 65.734-17.657 22.217c-70.74 89-154.007 169.462-247.494 239.144C164.658 699.42 84.11 747.327.406 785.882V723.57z" mask="url(#f)"/>
        </g>
        <g transform="translate(568)">
            <mask id="h" fill="#fff">
                <use xlink:href="#g"/>
            </mask>
            <path fill="#181818" d="M.835 723.569c70.394-35.728 138.286-83.584 202.476-131.42C284.68 531.51 357.897 462.359 421.28 386.317l-71.566-71.574 23.974-22.444C466.792 205.15 544.087 107.074 603.705.486L681.541-11.1 670.44 9.75c-59.361 111.472-136.724 214.356-230.217 306.224l65.728 65.734-17.661 22.217c-70.754 89-154.04 169.462-247.548 239.144C165.123 699.42 84.556 747.327.835 785.882V723.57z" mask="url(#h)"/>
        </g>
    </g>
</svg>
