<svg xmlns="http://www.w3.org/2000/svg" xmlns:xlink="http://www.w3.org/1999/xlink" width="160" height="160" viewBox="0 0 160 160">
    <defs>
        <path id="a" d="M0 .194h159.825V160H0z"/>
    </defs>
    <g fill="none" fill-rule="evenodd">
        <g>
            <mask id="b" fill="#fff">
                <use xlink:href="#a"/>
            </mask>
            <path fill="#1E68B2" d="M0 80.097C0 35.97 35.777.194 79.909.194c31.506 0 58.752 18.233 71.767 44.715l-17.055 8.268c-9.909-20.181-30.66-34.074-54.661-34.074-33.601 0-60.847 27.24-60.847 60.844 0 33.597 27.246 60.837 60.847 60.837 30.377 0 55.544-22.248 60.116-51.336h-26.838V70.44h46.01c.383 3.169.577 6.388.577 9.658 0 44.126-35.77 79.903-79.916 79.903C35.777 160 0 124.223 0 80.097" mask="url(#b)"/>
        </g>
        <path fill="#1E68B2" d="M53 58h51v7.651L78.492 89.564H104V102H53v-7.652l25.492-23.912H53z"/>
        <path fill="#1E68B2" d="M27 80.506C27 51.511 50.574 28 79.652 28c20.804 0 38.79 12.03 47.348 29.482l-13.143 6.39c-6.19-12.604-19.183-21.293-34.205-21.293-21 0-38.033 16.983-38.033 37.927 0 20.937 17.034 37.922 38.033 37.922 15.022 0 28.016-8.689 34.205-21.3L127 103.522C118.442 120.983 100.456 133 79.652 133 50.574 133 27 109.502 27 80.506"/>
    </g>
</svg>
