<?xml version="1.0" encoding="utf-8"?>
<svg xmlns="http://www.w3.org/2000/svg" xmlns:xlink="http://www.w3.org/1999/xlink" width="159" height="169" viewBox="0 0 159 169">
    <defs>
        <path id="a" d="M0 .54h157.895V169H0z"/>
    </defs>
    <g fill="none" fill-rule="evenodd">
        <g transform="translate(.564)">
            <mask id="b" fill="#fff">
                <use xlink:href="#a"/>
            </mask>
            <path fill="#FFF" d="M75.91 164.988c-1.696-2.263-4.552-4.096-8.543-5.685-3.967-1.592-8.936-2.902-14.375-4.403-10.867-3.018-23.729-6.828-34.63-16.456C11.1 132.035 4.845 123.053.757 110.473L0 108.146l1.8-1.657.036-.033.155-.148c.142-.136.358-.347.639-.628.56-.56 1.374-1.403 2.358-2.494a83.898 83.898 0 0 0 7.233-9.277c5.274-7.83 10.379-18.535 10.357-29.911.011-8.788-3.069-17.01-6.275-23.067-3.195-6.055-6.47-9.91-6.553-10.002l-1.72-1.99L19.352 8.03l3.35 1.821h.002l.06.032a34.738 34.738 0 0 0 1.462.702 49.463 49.463 0 0 0 4.498 1.753c3.82 1.287 9.104 2.557 14.802 2.555 10.49-.003 18.525-2.786 24.046-5.63 5.481-2.823 8.448-5.72 8.645-5.918L78.948.54l2.73 2.805.062.062c.068.065.182.174.342.318.32.291.824.728 1.506 1.263 1.365 1.071 3.447 2.533 6.209 4 5.53 2.936 13.745 5.902 24.57 5.905 11.045.033 20.518-4.852 20.823-5.041l.002-.001 3.35-1.822 11.324 20.91-1.72 1.99a.242.242 0 0 0-.017.02c-.019.02-.049.057-.09.107-.085.102-.215.26-.385.475-.34.428-.84 1.076-1.445 1.92a65.173 65.173 0 0 0-4.464 7.193c-3.26 6.082-6.439 14.427-6.428 23.354-.02 11.021 4.767 21.41 9.865 29.17 5.077 7.755 10.375 12.821 10.878 13.288l.035.033 1.8 1.657-.758 2.327c-5.35 16.52-14.5 26.805-24.633 33.277-10.123 6.492-21.062 9.34-30.278 11.888-6.145 1.68-11.532 3.256-15.31 5.342-2.167 1.187-3.786 2.494-4.93 4.008L78.946 169l-3.036-4.012z" mask="url(#b)"/>
        </g>
        <path fill="#00609D" d="M78.802 163.996c-2.905-3.85-7.97-6.213-14.3-8.218-6.318-2.011-13.835-3.675-21.5-6.346-15.322-5.313-31.31-14.844-39.247-39.236l-.19-.585.452-.415s.077-.07.234-.22c.157-.15.388-.376.686-.673a70.38 70.38 0 0 0 2.47-2.608 87.015 87.015 0 0 0 7.515-9.618c5.47-8.122 10.896-19.317 10.891-31.578.025-18.045-11.97-33.106-13.44-34.848-.097-.117-.143-.169-.143-.17l-.432-.499 9.06-16.695.842.457s.14.076.432.221c.292.146.727.356 1.29.608a52.075 52.075 0 0 0 4.783 1.862c4.044 1.357 9.637 2.71 15.781 2.708 21.375.004 33.418-11.014 34.768-12.317.09-.086.125-.123.125-.123L79.564 5l.687.703s.034.037.123.123c.09.086.227.216.411.383.37.334.927.815 1.67 1.398 1.488 1.163 3.716 2.723 6.66 4.283 5.888 3.123 14.621 6.253 26.027 6.253 10.755.007 19.811-4.155 21.855-5.178.293-.145.432-.221.432-.221l.841-.457 9.061 16.695-.432.5c-.001.001-.2.23-.569.692-.369.464-.899 1.15-1.536 2.039a68.342 68.342 0 0 0-4.684 7.527c-3.409 6.36-6.797 15.135-6.795 24.759-.045 22.99 19.183 42.235 21.563 44.477.158.15.234.22.234.22l.452.415-.19.585c-5.956 18.278-16.431 28.248-27.768 34.292-11.332 6.05-23.5 8.269-32.98 11.29-6.33 2.005-11.394 4.367-14.3 8.218L79.565 165l-.762-1.004z"/>
        <path fill="#FFF" d="M143.82 97.19c-5.584-8.308-11.207-19.819-11.213-32.66.027-18.095 11.28-32.871 13.622-35.77L142.562 22 36.564 144.34c10.17 4.816 20.929 6.9 29.742 9.699 5.961 1.903 11.09 4.135 14.477 7.961 3.386-3.826 8.516-6.058 14.478-7.961 6.439-2.048 13.913-3.704 21.443-6.333 14.94-5.243 30.017-14.125 37.86-37.477-1.435-1.393-6.085-6.108-10.744-13.038M51.733 118l-8.704-7.383-2.691 3.047-1.774-1.504 7.208-8.16 1.772 1.503-2.685 3.04 8.705 7.384zM53.66 109.896l1.54-2.26c.777.481 1.482.67 2.117.571.634-.1 1.223-.475 1.764-1.126.574-.69.866-1.336.877-1.938.01-.602-.173-1.073-.548-1.41a1.202 1.202 0 0 0-.8-.334c-.29-.005-.653.12-1.083.373-.291.175-.915.614-1.871 1.313-1.23.903-2.235 1.405-3.02 1.509-1.103.146-2.057-.144-2.864-.87a3.619 3.619 0 0 1-1.075-1.772c-.198-.713-.174-1.464.07-2.254.242-.79.702-1.592 1.381-2.407 1.107-1.331 2.222-2.08 3.343-2.248 1.12-.167 2.164.153 3.128.962l-1.691 2.224c-.6-.38-1.141-.523-1.62-.428-.482.095-.972.443-1.474 1.046-.517.623-.8 1.22-.848 1.793-.03.37.086.672.35.91.242.218.536.298.884.24.443-.074 1.216-.526 2.32-1.354 1.103-.83 1.989-1.38 2.657-1.651a3.65 3.65 0 0 1 2.012-.24c.672.112 1.33.46 1.976 1.04.584.526.99 1.187 1.22 1.983.23.798.21 1.616-.055 2.457-.266.84-.782 1.723-1.548 2.643-1.116 1.342-2.27 2.103-3.465 2.285-1.193.183-2.419-.17-3.676-1.057M66.218 94.113l-1.761-1.492 3.937-4.453 4.164 3.528c.044.795-.133 1.741-.533 2.838a9.013 9.013 0 0 1-1.718 2.91c-.947 1.07-2 1.808-3.163 2.216a5.905 5.905 0 0 1-3.553.126c-1.207-.322-2.312-.909-3.315-1.759-1.089-.922-1.859-1.965-2.31-3.129-.451-1.163-.522-2.367-.213-3.61.234-.95.782-1.914 1.646-2.89 1.124-1.272 2.272-2.033 3.448-2.286 1.176-.254 2.335-.075 3.475.533L64.9 89.029c-.64-.29-1.285-.363-1.934-.216-.649.146-1.237.517-1.763 1.113-.798.902-1.14 1.867-1.027 2.896.113 1.028.746 2.03 1.896 3.003 1.24 1.052 2.41 1.57 3.507 1.557 1.098-.015 2.033-.46 2.807-1.335.382-.432.68-.94.89-1.522a5.77 5.77 0 0 0 .36-1.655l-1.327-1.123-2.091 2.366zM83.564 81.012L81.816 83l-7.613-6.484a8.937 8.937 0 0 1-.727 3.872l-1.833-1.561c.283-.666.452-1.508.505-2.526.054-1.019-.141-1.915-.584-2.689L72.982 72l10.582 9.012zM84.762 73.71c.541.492 1.084.73 1.628.714.544-.015.996-.241 1.356-.677.351-.425.496-.91.434-1.454-.061-.544-.367-1.065-.918-1.565-.48-.436-.984-.644-1.51-.625-.527.018-.97.246-1.329.681-.416.505-.56 1.03-.433 1.578.127.548.385.997.772 1.349m-4.24-4.18c.392.355.794.517 1.205.483.412-.033.777-.243 1.096-.63.323-.39.471-.804.443-1.24-.027-.436-.237-.833-.63-1.189-.368-.334-.76-.486-1.173-.454-.414.03-.779.237-1.094.619-.327.396-.475.814-.445 1.251.03.438.23.826.598 1.16m1.63 2.224c-.654.337-1.27.457-1.846.359a3.004 3.004 0 0 1-1.536-.758c-.765-.695-1.167-1.549-1.203-2.562-.037-1.013.37-2.036 1.223-3.069.844-1.022 1.75-1.59 2.716-1.702.966-.111 1.832.18 2.598.874.476.432.792.946.949 1.542.157.596.14 1.218-.052 1.866.722-.39 1.43-.541 2.126-.454.695.088 1.33.392 1.904.913.948.86 1.456 1.876 1.526 3.047.07 1.171-.33 2.283-1.2 3.335-.807.979-1.725 1.571-2.752 1.778-1.213.242-2.324-.093-3.332-1.009a4.093 4.093 0 0 1-1.173-1.82c-.226-.71-.209-1.49.052-2.34M89.67 59.247c-.656-.54-1.294-.815-1.916-.826-.621-.011-1.104.171-1.446.547a1.424 1.424 0 0 0-.366 1.257c.083.48.46.998 1.134 1.553.684.563 1.304.849 1.858.856.554.007 1.006-.182 1.356-.567.338-.371.468-.81.392-1.32-.078-.508-.415-1.008-1.012-1.5m.459 8.029l1.484-2.05c.442.284.847.409 1.214.374.369-.033.696-.208.984-.524.362-.4.479-.897.348-1.495-.132-.596-.769-1.435-1.912-2.512.15.974-.106 1.825-.769 2.554-.72.794-1.665 1.213-2.831 1.259-1.166.045-2.266-.356-3.296-1.205-1.075-.886-1.665-1.902-1.77-3.052-.105-1.149.27-2.193 1.125-3.134.93-1.021 2.108-1.519 3.535-1.49 1.428.03 3.093.828 4.996 2.394 1.937 1.596 3.023 3.089 3.26 4.478.236 1.39-.144 2.632-1.14 3.728-.718.788-1.518 1.244-2.401 1.367-.883.122-1.825-.108-2.827-.692M96.67 51.247c-.655-.54-1.294-.816-1.916-.826-.622-.012-1.104.171-1.445.547a1.424 1.424 0 0 0-.366 1.257c.081.48.46.998 1.134 1.553.685.563 1.303.849 1.857.856.554.007 1.006-.182 1.356-.567.337-.371.469-.81.391-1.32-.077-.508-.414-1.008-1.011-1.5m.459 8.029l1.484-2.05c.442.284.847.408 1.214.374.369-.033.697-.208.984-.524.363-.4.479-.898.348-1.495-.131-.597-.768-1.434-1.911-2.512.15.974-.106 1.825-.77 2.554-.721.794-1.665 1.213-2.83 1.258-1.168.046-2.266-.355-3.297-1.205-1.074-.885-1.664-1.902-1.77-3.05-.104-1.15.27-2.195 1.125-3.135.93-1.021 2.109-1.519 3.536-1.49 1.427.03 3.093.828 4.995 2.395 1.936 1.595 3.023 3.088 3.26 4.477.236 1.389-.145 2.632-1.14 3.728-.718.788-1.519 1.244-2.401 1.367-.883.123-1.824-.108-2.827-.692"/>
        <path fill="#00609D" d="M66.728 136l-10.164-9.057 1.475-1.753 4 3.565 2.888-3.437-4-3.564L62.401 120l10.163 9.056-1.473 1.754-4.445-3.96-2.888 3.437 4.444 3.96zM72.234 122.568c.762.674 1.475 1.037 2.14 1.088.664.052 1.187-.147 1.568-.598.381-.45.498-1.006.352-1.67-.148-.663-.607-1.337-1.379-2.02-.752-.665-1.458-1.024-2.122-1.078-.663-.054-1.184.144-1.566.594-.38.45-.498 1.008-.353 1.674.146.666.6 1.336 1.36 2.01m-1.604 1.672a6.539 6.539 0 0 1-1.601-2.16c-.393-.84-.537-1.667-.43-2.48a4.13 4.13 0 0 1 .967-2.176c.835-.985 1.896-1.46 3.184-1.422 1.288.038 2.507.566 3.66 1.586 1.162 1.029 1.855 2.2 2.08 3.512.227 1.313-.07 2.452-.886 3.418a4.219 4.219 0 0 1-1.924 1.287c-.777.26-1.593.26-2.447-.002-.853-.262-1.721-.782-2.603-1.563M72.853 113.509l.79-.9-.564-.482c-.63-.538-1.053-.993-1.267-1.367a1.927 1.927 0 0 1-.226-1.254c.063-.46.292-.917.688-1.366a5.097 5.097 0 0 1 1.445-1.14l1.192 1.4a3.548 3.548 0 0 0-.768.648c-.206.234-.287.46-.242.675.044.217.258.488.638.813l.53.451 1.064-1.212 1.56 1.33-1.065 1.212 5.936 5.06L81.14 119l-5.936-5.062-.791.9-1.56-1.329z"/>
        <path fill="#00609D" d="M75.853 109.509l.79-.9-.564-.481c-.63-.539-1.053-.994-1.267-1.368a1.927 1.927 0 0 1-.226-1.254c.063-.46.293-.916.688-1.366a5.129 5.129 0 0 1 1.445-1.14l1.192 1.4c-.302.193-.558.409-.768.648-.206.234-.287.46-.242.676.045.216.258.487.638.812l.53.451 1.064-1.212 1.56 1.33-1.065 1.212 5.936 5.062L84.14 115l-5.936-5.061-.791.9-1.56-1.33zM86.956 103.695c-.604-.474-1.164-.722-1.681-.746-.518-.023-.927.129-1.227.456-.32.352-.423.774-.307 1.27.116.495.454.97 1.017 1.423l2.198-2.403zm1.984 1.785l1.808-1.321c.56.819.831 1.61.816 2.374-.016.765-.329 1.48-.94 2.148-.965 1.056-2.12 1.478-3.463 1.266-1.07-.177-2.142-.705-3.215-1.583-1.282-1.05-2.045-2.135-2.29-3.256-.245-1.12 0-2.083.737-2.888.827-.904 1.86-1.305 3.097-1.205 1.238.1 2.63.803 4.178 2.11l-3.683 4.026c.617.486 1.208.744 1.772.773.565.027 1.015-.143 1.354-.513.23-.252.336-.535.318-.85-.018-.315-.18-.675-.489-1.08zM98.564 98.424l-1.378 1.62-3.701-3.256c-.783-.69-1.318-1.1-1.607-1.234-.289-.133-.564-.178-.824-.134-.26.044-.483.175-.669.394-.239.28-.362.612-.37.994-.007.383.104.748.334 1.095.23.347.75.877 1.561 1.59l3.284 2.888L93.816 104l-7.252-6.38 1.28-1.503 1.066.937c-.365-1.253-.202-2.286.488-3.096a2.724 2.724 0 0 1 1.062-.779c.404-.161.79-.214 1.155-.157.367.057.725.187 1.077.392.35.205.806.553 1.366 1.046l4.506 3.964zM90.966 86.542l3.742 3.248c-.284-1.162-.112-2.108.517-2.836a2.69 2.69 0 0 1 1.123-.795c.425-.155.833-.197 1.224-.124.39.073.767.218 1.13.435.363.218.875.614 1.538 1.187l4.324 3.755-1.401 1.624-3.895-3.38c-.772-.672-1.29-1.066-1.552-1.186-.26-.119-.52-.154-.778-.105-.257.05-.487.193-.69.427-.232.27-.362.58-.387.928-.025.349.078.71.31 1.084.233.372.66.828 1.28 1.367l3.691 3.206-1.4 1.623-10.178-8.834 1.402-1.624zM104.955 81.695c-.603-.474-1.163-.722-1.68-.746-.519-.024-.927.128-1.227.456-.32.35-.423.774-.307 1.27.116.495.455.969 1.016 1.423l2.198-2.403zm1.985 1.786l1.808-1.322c.559.819.831 1.61.816 2.375-.016.764-.329 1.48-.94 2.147-.965 1.056-2.12 1.478-3.463 1.265-1.07-.176-2.142-.703-3.215-1.582-1.282-1.05-2.045-2.135-2.29-3.256-.245-1.12.002-2.083.737-2.888.827-.904 1.86-1.305 3.097-1.205 1.238.1 2.63.803 4.178 2.11l-3.684 4.027c.618.486 1.209.743 1.773.771.565.028 1.016-.142 1.354-.511.23-.252.336-.536.319-.85-.019-.315-.182-.675-.49-1.081zM112.112 82l-7.64-6.73 1.452-1.71 7.64 6.733L112.112 82zm-8.676-7.644l-1.872-1.648L103.017 71l1.87 1.648-1.451 1.708zM107.564 72.372l1.363-1.55 1.062.905c-.338-1.257-.169-2.27.505-3.036.357-.407.77-.673 1.239-.797.468-.125.994-.106 1.577.056-.17-.632-.214-1.199-.136-1.696.08-.498.28-.93.603-1.297.411-.467.874-.763 1.39-.89.517-.125 1.07-.076 1.66.147.433.168 1.02.568 1.764 1.2l4.973 4.238-1.478 1.682-4.447-3.79c-.771-.656-1.32-1.023-1.647-1.099-.43-.093-.787.02-1.071.344-.207.235-.315.532-.32.89-.008.356.119.725.378 1.107.258.381.754.883 1.486 1.507l3.736 3.183-1.478 1.682-4.264-3.632c-.757-.645-1.272-1.031-1.544-1.159-.272-.127-.517-.174-.736-.14-.218.034-.42.159-.61.374-.23.26-.349.566-.36.919-.011.354.105.712.348 1.077.243.364.739.864 1.486 1.502l3.78 3.22-1.48 1.681-7.779-6.628z"/>
    </g>
</svg>
