<svg xmlns="http://www.w3.org/2000/svg" xmlns:xlink="http://www.w3.org/1999/xlink" width="111" height="112" viewBox="0 0 111 112">
    <defs>
        <path id="a" d="M0 .01h48.77v78.151H0z"/>
        <path id="c" d="M.093.01h48.77v78.151H.094z"/>
        <path id="e" d="M.116.067h33.458v40.267H.116z"/>
        <path id="g" d="M.126.067h33.459v40.267H.126z"/>
    </defs>
    <g fill="none" fill-rule="evenodd">
        <path fill="#927c50" d="M62.129 0L55.5 7.2 48.871 0H42l13.5 14L69 0zM67.986 78.468c-3.827 2.81-8.078 5.044-12.665 6.654-4.587-1.61-8.84-3.843-12.666-6.654v-8.115c1.315-1.351 3.237-2.097 5.26-2.879 2.534-.978 5.426-2.098 7.406-4.605 1.98 2.507 4.87 3.627 7.404 4.605 2.024.782 3.947 1.528 5.261 2.879v8.115zm9.877-27.019H73.04c1.826 3.021 1.919 5.903 1.363 8.577-.596 2.868-2.46 5.008-3.803 6.23-1.888-1.6-4.13-2.466-6.165-3.252-3.73-1.44-6.295-2.43-6.681-6.939l9.256-6.116V36.345c0-2.526 1.169-5.882 11.28-5.882V26.24c-7.32 0-16.046 1.285-16.046 10.105v11.023l-6.923 4.575-6.923-4.575V36.345c0-8.82-8.726-10.105-16.046-10.105v4.223c10.111 0 11.28 3.356 11.28 5.882v13.604l9.255 6.116c-.386 4.508-2.951 5.499-6.68 6.94-2.035.785-4.277 1.65-6.164 3.251-1.347-1.224-3.21-3.364-3.804-6.23-.556-2.674-.464-5.556 1.362-8.577h-4.822c-1.452 3.262-1.858 6.484-1.193 9.615 1.047 4.932 4.488 8.2 6.304 9.627v10.153c.787.61 8.333 6.737 17.43 9.29 9.087-2.55 16.557-8.613 17.432-9.29V70.69c1.815-1.426 5.257-4.695 6.303-9.627.665-3.131.26-6.353-1.192-9.615z"/>
        <g transform="translate(0 33.782)">
            <mask id="b" fill="#fff">
                <use xlink:href="#a"/>
            </mask>
            <path fill="#927c50" d="M48.77 73.706c-5.043-2.554-9.907-5.975-14.506-9.395-5.83-4.335-11.076-9.28-15.617-14.715l5.127-5.117-1.717-1.605c-6.671-6.23-12.21-13.242-16.48-20.863L21.486 5.564V.01L0 21.183l.796 1.49C5.048 30.644 10.59 38 17.29 44.567l-4.71 4.7 1.266 1.588c5.07 6.363 11.036 12.116 17.736 17.097a96.102 96.102 0 0 0 17.188 10.21v-4.455z" mask="url(#b)"/>
        </g>
        <g transform="translate(61.778 33.782)">
            <mask id="d" fill="#fff">
                <use xlink:href="#c"/>
            </mask>
            <path fill="#927c50" d="M.093 73.706c5.044-2.554 9.908-5.975 14.507-9.395 5.83-4.335 11.076-9.28 15.616-14.715l-5.127-5.117 1.718-1.605c6.67-6.23 12.209-13.242 16.48-20.863L27.377 5.564V.01l21.487 21.173-.795 1.49C43.815 30.644 38.273 38 31.574 44.567l4.71 4.7-1.266 1.588c-5.07 6.363-11.037 12.116-17.736 17.097A96.102 96.102 0 0 1 .093 78.161v-4.455z" mask="url(#d)"/>
        </g>
        <g transform="translate(3.103)">
            <mask id="f" fill="#fff">
                <use xlink:href="#e"/>
            </mask>
            <path fill="#927c50" d="M33.574 4.423L28.827.067H6.812l12.697 14.521L.116 34.131v6.203l25.93-25.527-9.133-10.384z" mask="url(#f)"/>
        </g>
        <g transform="translate(73.837)">
            <mask id="h" fill="#fff">
                <use xlink:href="#g"/>
            </mask>
            <path fill="#927c50" d="M.126 4.423L4.874.067h22.014L14.191 14.588l19.394 19.543v6.203L7.655 14.807l9.132-10.384z" mask="url(#h)"/>
        </g>
    </g>
</svg>
