<?xml version="1.0" encoding="utf-8"?>
<svg xmlns="http://www.w3.org/2000/svg" xmlns:xlink="http://www.w3.org/1999/xlink" width="140" height="191" viewBox="0 0 140 191">
    <defs>
        <path id="a" d="M0 .206h139.77V191H0z"/>
    </defs>
    <g fill="none" fill-rule="evenodd">
        <g>
            <mask id="b" fill="#fff">
                <use xlink:href="#a"/>
            </mask>
            <path fill="#231F20" d="M64.84 181.745a234.63 234.63 0 0 0 4.677 3.897 181.6 181.6 0 0 0 4.81-3.859 39.069 39.069 0 0 0-5.013-.307c-1.488.008-2.99.105-4.474.269m67.533-110.286c.103.046.3.103.376.133.318.125.581.298.804.559.505.596.505 1.261.473 1.98.391.361 1.051.727 1.443 1.096.705.665 1.05 1.038 1.286 2.014.138.572.089 1.26.023 1.865.305.307.43.735.415 1.179-.043 1.258-.063 2.518-.144 3.777.031.014.061.028.09.043.643.333 1.046.824 1.101 1.566.033.443-.222 1.057-.312 1.483 1.233.076 1.965.66 1.826 2.016-.172 1.68-1.372 3.206-2.703 4.167-.843.607-1.98 1.29-2.223 2.378-.03.132-.077.265-.12.397l.02.114c.26.292.47.623.576.996.67.174 1.016.72 1.052 1.475.058 1.173-.333 3.29-.787 4.548.034.02.067.04.099.061.646.417 1.114.976 1.063 1.788-.016.264-.123.509-.26.731-.074.121-.22.297-.327.445.166.098.42.226.53.31.483.369.697.883.752 1.477.141 1.512-1.426 3.032-2.508 3.9-.509.407-1.102.723-1.66 1.06-.33.199-1.103.624-1.344.889-.07.076-.315.288-.233.405.537.767.686 1.573.252 2.378.326 1.467.181 3.017-.307 4.433-.63 1.826-1.483 3.564-2.27 5.326-1.255 2.816-2.064 6.237-4.334 8.446-.966.941-1.88 1.596-3.097 2.183-.355.17-.715.328-1.08.476-.087 1.777-1.054 3.744-2.092 5.21.509.495.76 1.101.576 1.814-.113.435-.348.576-.571.835.116.13.353.359.399.412.404.477.517 1.022.461 1.637-.19 2.116-4.911 4.065-6.712 4.513-.474.117-.554.157-.58.656-.076 1.492.146 2.552-1.456 3.342a9.212 9.212 0 0 1-.878.382c-.272 1.69-1.523 3.256-3.158 3.794a4.62 4.62 0 0 1-1.01.198c.154.391.192.803.129 1.232a2.021 2.021 0 0 1-.432 1.014c-.133.165-.31.313-.43.479a.476.476 0 0 0-.097.31c0 1.361.934 2.634.119 4.04-.773 1.336-2.61 2.205-3.94 2.893-.357.186-.782.223-1.179.228-.174.002-.64-.025-.93-.003h.176l-2.194 1.865c-3.857 3.276-7.503 6.8-11.535 9.87-1.217.926-1.955 1.534-3.572 1.08a58.716 58.716 0 0 0-2.244-.586 195.156 195.156 0 0 1-8.27 6.724L69.459 191l-1.931-1.55a258.225 258.225 0 0 1-8.078-6.793c-.808.193-1.612.415-2.399.68-1.476.497-1.894-.014-3.02-.8-4.27-2.976-7.945-6.65-11.919-9.988l-1.867-1.568c-1.086-.487-2.364-1.15-3.152-1.952l-12.946-13.175 1.907-.384c.211-.042.423-.083.635-.12l-9.919-12.482.832-.031c.627-.023 1.255-.05 1.882-.069-.798-2.09-1.776-4.1-3.004-5.975l-.21-.319c-1.082-.448-2.084-1.03-2.954-1.824-2.384-2.173-2.632-5.336-3.87-8.113-.825-1.848-1.92-3.587-2.582-5.504-.498-1.446-.684-3.026-.32-4.525l.333-1.366a34.863 34.863 0 0 1-1.803-3.353l-.91-1.944 2.001.447a64.744 64.744 0 0 0-1.17-4.524A92.096 92.096 0 0 0 .93 94.593L0 92.482l2.203.678c.77.237 1.531.5 2.284.785a21.406 21.406 0 0 1-1.432-4.192c-1.35-5.942.216-12.708 3.556-17.742l.506-.764a301.219 301.219 0 0 1-.573-16.127l-.02-2.592c1.463.1 2.855-.162 4.296-.432 4.775-.895 8.932-2.93 13.434-5 7.176-3.301 14.134-7.05 21.13-10.711 1.605-.84 3.208-1.68 4.815-2.514L38.138 23.088 60.4 20.904 69.35.206l8.947 20.698 22.264 2.184-11.84 10.584c2.9 1.521 5.782 3.075 8.669 4.62 5.812 3.112 11.631 6.227 17.649 8.93 4.578 2.056 9.69 4.15 14.685 4.817l2.832.378-.093 2.858c-.169 5.166-.205 10.334-.368 15.499.089.23.175.461.278.685" mask="url(#b)"/>
        </g>
        <path fill="#EDC225" d="M62.471 181.885a256.87 256.87 0 0 0 6.504 5.435 189.886 189.886 0 0 0 6.664-5.367c.89.146 1.777.319 2.656.511a194.93 194.93 0 0 1-8.038 6.53L68.946 190l-1.29-1.035a256.989 256.989 0 0 1-7.863-6.607 44.003 44.003 0 0 1 2.678-.473zM20.701 62.62c9.051-3.542 17.855-7.898 26.433-12.46a511.956 511.956 0 0 0 6.429-3.477l1.932-8.83-2.305-2.061c-11.241 5.748-23.125 12.18-32.323 16.187-4.684 2.042-8.832 3.258-11.712 3.575.05 8.343.527 16.373 1.115 23.76-1.006-2.064-1.846-4.194-2.574-6.178-.365-5.935-.639-11.876-.684-17.826L7 53.709c1.633-.104 4.34-.568 6.57-1.276 3.71-1.18 7.8-2.924 10.555-4.191 7.177-3.302 14.197-7.083 21.197-10.746 2.046-1.07 4.104-2.15 6.175-3.218L40.074 24.065l20.511-2.012L68.821 3l8.235 19.053 20.511 2.012-11.196 10.01c3.355 1.746 6.685 3.541 10.019 5.326 5.825 3.119 11.7 6.263 17.73 8.971 4.577 2.057 9.995 4.238 14.99 4.906l1.89.252-.062 1.908c-.157 4.812-.2 9.625-.336 14.435-.242-.299-.549-.521-.852-.77-.374-.305-.778-.593-1.222-.604.087-3.745.128-7.744.304-13.131-11.792-1.575-28.806-11.854-44.144-19.788l-2.542 2.273 1.933 8.838c1.592.852 3.184 1.7 4.779 2.545 5.004 2.65 10.035 5.27 15.14 7.721 4.287 2.058 8.735 4.08 13.232 5.633l1.503.519-.085 1.588c-.739 13.812-2.08 27.825-5.8 41.188-6.772 24.328-19.926 44.079-37.013 62.019-.89-.108-1.78-.193-2.674-.258 18.566-19.207 31.145-38.934 37.657-62.327 3.512-12.617 4.944-26.117 5.726-40.734-8.789-3.033-20.549-9.147-31.871-15.185l1.913 8.75-17.765-10.532-17.767 10.531 1.912-8.734c-10.4 5.674-21.122 11.108-31.497 15.17 1.08 14.316 1.898 28.325 5.444 41.014 6.52 23.326 21.051 45.748 38.33 62.084-.922.072-1.842.166-2.76.279-17.204-16.696-31.218-38.962-37.6-61.796a100.116 100.116 0 0 1-1.428-5.789l.005-.01.52-1.196-.739.194c-2.343-11.332-3.011-23.19-3.873-34.621l-.118-1.556 1.451-.568zM12 83.693C9.457 79.902 7.776 75.253 6.668 72c-3.545 5.67-4.265 12.3-3.241 17.085C3.86 91.112 4.534 92.8 5.159 94a20.54 20.54 0 0 1 1.554-3.85c.151-.285.314-.573.488-.86-.79-3.097-1.407-8.785-.983-12.241.001 2.247.19 4.91.52 7.346.179-1.056.505-2.281.998-3.247-.426 1.585-.773 3.547-.76 4.806.17 1.008.367 1.946.585 2.76A23.555 23.555 0 0 1 12 83.693"/>
        <path fill="#EDC225" d="M12 83.693C9.457 79.902 7.776 75.253 6.668 72c-3.545 5.67-4.265 12.3-3.241 17.085C3.86 91.112 4.534 92.8 5.159 94a20.54 20.54 0 0 1 1.554-3.85c.151-.285.314-.573.488-.86-.79-3.097-1.407-8.785-.983-12.241.001 2.247.19 4.91.52 7.346.179-1.056.505-2.281.998-3.247-.426 1.585-.773 3.547-.76 4.806.17 1.008.367 1.946.585 2.76A23.555 23.555 0 0 1 12 83.693M17.716 82c-4.248 1.505-8.213 5.737-9.98 8.922A19.07 19.07 0 0 0 6 95.208a31.681 31.681 0 0 1 4.337 2.376c.096-.423.206-.875.33-1.345-.108-1.236-.724-3.204-1.378-4.763.792 1.12 1.358 2.686 1.633 3.833.85-2.984 2.156-6.507 3.548-8.79-1.553 3.5-2.877 7.676-3.653 11.389 2.067 1.429 3.885 3.13 5.128 5.092a22.393 22.393 0 0 1 1.838-1.362c.069-.407.123-.81.161-1.21.204-2.122-.177-4.66-.727-7.155-.675-3.06-.526-8.249.499-11.273"/>
        <path fill="#EDC225" d="M17.716 82c-4.248 1.505-8.213 5.737-9.98 8.922A19.07 19.07 0 0 0 6 95.208a31.681 31.681 0 0 1 4.337 2.376c.096-.423.206-.875.33-1.345-.108-1.236-.724-3.204-1.378-4.763.792 1.12 1.358 2.686 1.633 3.833.85-2.984 2.156-6.507 3.548-8.79-1.553 3.5-2.877 7.676-3.653 11.389 2.067 1.429 3.885 3.13 5.128 5.092a22.393 22.393 0 0 1 1.838-1.362c.069-.407.123-.81.161-1.21.204-2.122-.177-4.66-.727-7.155-.675-3.06-.526-8.249.499-11.273M9.482 118.115C7.754 115.955 6.322 113.791 5 111c7.385 1.633 10.907 4.074 14 6.716-.64.94-1.194 1.94-1.667 2.984-2.19-2.033-5.075-4.451-7.61-5.836 2.277 1.795 5.071 4.044 7.371 6.383-.104.25-.204.5-.3.753a47.558 47.558 0 0 1-1.933-.814c-1.914-.859-3.721-1.85-5.379-3.07"/>
        <path fill="#EDC225" d="M9.482 118.115C7.754 115.955 6.322 113.791 5 111c7.385 1.633 10.907 4.074 14 6.716-.64.94-1.194 1.94-1.667 2.984-2.19-2.033-5.075-4.451-7.61-5.836 2.277 1.795 5.071 4.044 7.371 6.383-.104.25-.204.5-.3.753a47.558 47.558 0 0 1-1.933-.814c-1.914-.859-3.721-1.85-5.379-3.07"/>
        <path fill="#EDC225" d="M4.113 97.168c1.745 1.938 3.458 3.936 4.972 6.025-.792-.472-1.725-.828-3.068-1.147 1.299.56 2.648 1.213 3.575 1.862a35.583 35.583 0 0 1 1.998 3.205l.34-.523c-1.6-2.89-4.574-6.473-7.817-9.422m2.385 14.022C5.318 105.112 2.739 98.025 1 94c5.924 1.862 11.445 5.267 14 9.39-1.407 1.238-2.64 2.625-3.568 4.033A17.991 17.991 0 0 0 9.277 112a39.808 39.808 0 0 0-2.779-.81"/>
        <path fill="#EDC225" d="M4.113 97.168c1.745 1.938 3.458 3.936 4.972 6.025-.792-.472-1.725-.828-3.068-1.147 1.299.56 2.648 1.213 3.575 1.862a35.583 35.583 0 0 1 1.998 3.205l.34-.523c-1.6-2.89-4.574-6.473-7.817-9.422m2.385 14.022C5.318 105.112 2.739 98.025 1 94c5.924 1.862 11.445 5.267 14 9.39-1.407 1.238-2.64 2.625-3.568 4.033A17.991 17.991 0 0 0 9.277 112a39.808 39.808 0 0 0-2.779-.81"/>
        <path fill="#EDC225" d="M23 99c-4.507 1.177-8.78 4.874-10.868 7.969A17.159 17.159 0 0 0 10 111.396a29.263 29.263 0 0 1 4.71 2.08c.225.126.446.254.663.384.568-2.262 1.38-4.598 2.442-6.53-.723 2.25-1.422 4.539-1.953 6.83.587.37 1.15.76 1.698 1.168.733-.784 1.513-1.822 2.193-2.841-.742 1.492-1.211 2.334-1.871 3.081.6.457 1.183.935 1.767 1.432a17.604 17.604 0 0 1 2.23-2.524c-.014-1.416-.163-2.92-.371-4.412-.443-3.17.184-8.072 1.492-11.064"/>
        <path fill="#EDC225" d="M23 99c-4.507 1.177-8.78 4.874-10.868 7.969A17.159 17.159 0 0 0 10 111.396a29.263 29.263 0 0 1 4.71 2.08c.225.126.446.254.663.384.568-2.262 1.38-4.598 2.442-6.53-.723 2.25-1.422 4.539-1.953 6.83.587.37 1.15.76 1.698 1.168.733-.784 1.513-1.822 2.193-2.841-.742 1.492-1.211 2.334-1.871 3.081.6.457 1.183.935 1.767 1.432a17.604 17.604 0 0 1 2.23-2.524c-.014-1.416-.163-2.92-.371-4.412-.443-3.17.184-8.072 1.492-11.064M28.456 144.145a27.322 27.322 0 0 1 2.412.855c.305-1.04.685-2.068 1.132-3.08a42.234 42.234 0 0 0-3.82-2.292c.067 1.5.14 3.018.276 4.517M24.24 138c-.22 1.749-.301 3.993-.189 5.149.514.132 2.768.527 3.887.844a49.843 49.843 0 0 1-.006-4.493 21.6 21.6 0 0 0-3.692-1.5"/>
        <path fill="#EDC225" d="M28.456 144.145a27.322 27.322 0 0 1 2.412.855c.305-1.04.685-2.068 1.132-3.08a42.234 42.234 0 0 0-3.82-2.292c.067 1.5.14 3.018.276 4.517M24.24 138c-.22 1.749-.301 3.993-.189 5.149.514.132 2.768.527 3.887.844a49.843 49.843 0 0 1-.006-4.493 21.6 21.6 0 0 0-3.692-1.5M27.31 155L18 143.022c4.71-.178 8.705.736 12 2.116a22.245 22.245 0 0 0-.653 3.88c-1.763-1.183-4.117-2.466-6.384-3.51 2.008 1.244 4.437 2.836 6.342 4.216-.017.39-.021.781-.016 1.174-.763.065-1.517.118-2.894.237.941.11 1.998.145 2.905.164.04 1.155.182 2.32.432 3.487-.804.034-1.612.106-2.421.214"/>
        <path fill="#EDC225" d="M27.31 155L18 143.022c4.71-.178 8.705.736 12 2.116a22.245 22.245 0 0 0-.653 3.88c-1.763-1.183-4.117-2.466-6.384-3.51 2.008 1.244 4.437 2.836 6.342 4.216-.017.39-.021.781-.016 1.174-.763.065-1.517.118-2.894.237.941.11 1.998.145 2.905.164.04 1.155.182 2.32.432 3.487-.804.034-1.612.106-2.421.214"/>
        <path fill="#EDC225" d="M34.375 138c-3.706 5.803-5.207 11.806-3.924 17.665a24.071 24.071 0 0 1 4.315.307c-.737-3.153-1.173-7.228-.956-11.936.167 3.19.465 6.558 1.052 9.742.316-1.2.792-2.004 1.832-3.727-.75 1.542-1.513 3.61-1.625 4.784.087.418.179.83.277 1.24.893.17 1.78.393 2.656.67.457-.822 1.055-1.544 1.716-2.222-.403.634-.912 1.42-1.307 2.356 1.292.437 2.562.994 3.807 1.675.266.146.526.294.782.446-.37-2.072-1.134-3.938-1.966-5.49-1.003-1.87-2.37-3.5-3.55-5.771-1.462-2.811-2.572-6.732-3.109-9.739"/>
        <path fill="#EDC225" d="M34.375 138c-3.706 5.803-5.207 11.806-3.924 17.665a24.071 24.071 0 0 1 4.315.307c-.737-3.153-1.173-7.228-.956-11.936.167 3.19.465 6.558 1.052 9.742.316-1.2.792-2.004 1.832-3.727-.75 1.542-1.513 3.61-1.625 4.784.087.418.179.83.277 1.24.893.17 1.78.393 2.656.67.457-.822 1.055-1.544 1.716-2.222-.403.634-.912 1.42-1.307 2.356 1.292.437 2.562.994 3.807 1.675.266.146.526.294.782.446-.37-2.072-1.134-3.938-1.966-5.49-1.003-1.87-2.37-3.5-3.55-5.771-1.462-2.811-2.572-6.732-3.109-9.739"/>
        <path stroke="#231F20" stroke-width=".001" d="M42.713 170.999c-2.284-.772-4.853-1.798-5.92-2.847L25 156.552c14.412-2.807 22.543 5.899 24.697 8.116.637.656 1.61 2.943 2.303 4.735-.819.183-1.638.365-2.458.54-1.351-1.442-3.075-2.949-5.304-4.518-.081-1.318-.204-2.293-.796-3.752.286 1.177.376 2.305.269 3.385-3.248-2.222-7.515-4.568-13.166-7.03 2.324 1.232 4.658 2.419 6.947 3.702-1.029.086-1.678.094-3.458.15 1.547.17 3.28.267 4.283.317 2.571 1.477 5.075 3.1 7.433 5.074-1.429.104-4.034.147-5.9.205 1.503.165 5.068.228 6.46.272a36.041 36.041 0 0 1 2.465 2.355c-.616.126-1.231.247-1.849.357-1.196.217-2.857.563-4.213.539z"/>
        <path fill="#EDC225" d="M42.713 170.999c-2.284-.772-4.853-1.798-5.92-2.847L25 156.552c14.412-2.807 22.543 5.899 24.697 8.116.637.656 1.61 2.943 2.303 4.735-.819.183-1.638.365-2.458.54-1.351-1.442-3.075-2.949-5.304-4.518-.081-1.318-.204-2.293-.796-3.752.286 1.177.376 2.305.269 3.385-3.248-2.222-7.515-4.568-13.166-7.03 2.324 1.232 4.658 2.419 6.947 3.702-1.029.086-1.678.094-3.458.15 1.547.17 3.28.267 4.283.317 2.571 1.477 5.075 3.1 7.433 5.074-1.429.104-4.034.147-5.9.205 1.503.165 5.068.228 6.46.272a36.041 36.041 0 0 1 2.465 2.355c-.616.126-1.231.247-1.849.357-1.196.217-2.857.563-4.213.539M17 136c1.258 2.063 2.258 4.277 3.103 6.752.818.009 1.548.075 2.646.248a26.127 26.127 0 0 1 .251-5.481c-1.92-.547-4.041-.853-6-1.519"/>
        <path fill="#EDC225" d="M17 136c1.258 2.063 2.258 4.277 3.103 6.752.818.009 1.548.075 2.646.248a26.127 26.127 0 0 1 .251-5.481c-1.92-.547-4.041-.853-6-1.519"/>
        <path stroke="#231F20" stroke-width=".001" d="M7.163 116c-.317 1.318-.146 2.677.29 3.956.56 1.646 1.563 3.253 2.533 5.453 1.107 2.509 1.494 5.871 3.6 7.813 2.582 2.383 5.976 2.444 9.554 3.432 2.839.783 5.791 2.339 8.781 4.346.33-.71.69-1.41 1.079-2.102-1.29-3.67-2.913-7.928-3.663-9.489-1.304-2.717-3.976-3.916-6.561-4.996-4.613-1.927-10.83-3.525-15.613-8.413z"/>
        <path fill="#EDC225" d="M24.48 114c-3.308 2.19-5.31 5.281-6.48 8.299 1.147.432 2.304.84 3.455 1.263.233-2.128.676-4.33 1.398-6.218-.359 2.12-.69 4.273-.88 6.41.456.17.91.344 1.363.525 1.378.548 2.604 1.087 3.664 1.721-.254-.559-.5-1.139-.727-1.75-1.069-2.88-1.693-7.32-1.794-10.25"/>
        <path fill="#EDC225" d="M24.48 114c-3.308 2.19-5.31 5.281-6.48 8.299 1.147.432 2.304.84 3.455 1.263.233-2.128.676-4.33 1.398-6.218-.359 2.12-.69 4.273-.88 6.41.456.17.91.344 1.363.525 1.378.548 2.604 1.087 3.664 1.721-.254-.559-.5-1.139-.727-1.75-1.069-2.88-1.693-7.32-1.794-10.25"/>
        <path fill="#D92E30" d="M7.163 116c-.317 1.318-.146 2.677.29 3.956.56 1.646 1.563 3.253 2.533 5.453 1.107 2.509 1.494 5.871 3.6 7.813 2.582 2.383 5.976 2.444 9.554 3.432 2.839.783 5.791 2.339 8.781 4.346.33-.71.69-1.41 1.079-2.102-1.29-3.67-2.913-7.928-3.663-9.489-1.304-2.717-3.976-3.916-6.561-4.996-4.613-1.927-10.83-3.525-15.613-8.413M129.825 117c.314 1.3.188 2.686-.243 3.947-.556 1.624-1.242 3.031-2.203 5.203-1.096 2.474-2.025 6.078-4.048 8.061-.973.955-1.712 1.456-2.78 1.974-2.265 1.098-4.917 1.705-7.344 2.298-2.921.713-6.624 2.188-10.207 4.517 1.586-3.577 4.648-11.162 5.337-12.727 1.511-3.433 3.81-4.086 6.37-5.15 4.482-1.813 10.423-3.433 15.118-8.123"/>
        <path fill="#EDC225" d="M86 169.6c.11-1.578.134-3.28 1.033-4.263.796-.87 2.312.059 3.141-.66.759-.655.409-3.413 1.987-5.188.643-.723 2.028-.148 2.997-.346 1.305-.267 1.462-1.638 2.565-1.765 1.073-.122 1.67 1.148 2.71.865.605-.164 1.082-.827 1.697-1.39.615-.564 1.367-1.026 1.946-.79.844.345 1.007 1.164.89 1.972-.115.807-.69 1.432-.564 2.145.083.463.67.682.541 1.522-.135.88-.987.735-.987 1.905 0 1.18.8 2.541.266 3.422-.595.983-2.153 1.717-3.577 2.424-.435.215-1.863.004-2.33.242-.766.392-1.362.881-1.95 1.305h-.123c-1.867.005-3.643-.037-5.475-.373a50.513 50.513 0 0 0 4.828-4.127c1.656.117 4.33.029 5.916-.208-1.237.03-4.086.092-5.533-.163 2.08-2.036 4.33-4.509 6.918-7.63-1.604 1.66-3.165 3.347-4.78 4.997.119-1.073.205-1.852.344-3.133-.405 1.377-.618 2.74-.882 3.68a67.8 67.8 0 0 1-3.713 3.494c-.013-1.35.138-3.918.215-5.747-.284 1.444-.611 4.922-.755 6.207a42.722 42.722 0 0 1-3.189 2.443 1517.22 1517.22 0 0 0-.968-3.206c.138 1.172.39 2.287.545 3.184A170.003 170.003 0 0 1 86 169.6M119 137c-.088 1.838-1.275 3.914-2.137 5.07-.544.729.912.88.683 1.793-.086.342-.722.532-.646 1.156.11.9 1.001.777.902 1.92-.096 1.1-3.477 3.018-5.797 3.61-.65.167-1.289.422-1.349 1.639-.052 1.045.227 1.92-.853 2.47-.267.135-.513.248-.756.342-.033-.63-.249-1.149-.813-1.654-.646-.58-1.222-1.246-1.29-1.99.491-1.017.988-2.097 1.69-3.188 2.094-.29 4.3-.38 6.163-.773-2.024.087-4.039.264-5.83.273.714-1.061 1.58-2.38 2.45-3.802.731-.304 1.575-.643 2.41-1.061l-2.156.645c1.002-1.663 1.987-3.445 2.723-5.113 1.543-.383 3.107-.786 4.606-1.337zm-4.786 1.382c-1.16 2.167-2.68 4.676-4.148 6.922-.36-1.464-.71-2.666-1.161-3.648.348 1.276.673 2.634.907 4.037a95.447 95.447 0 0 1-1.515 2.229 2.627 2.627 0 0 0-.051-.285c-.197-.834-.673-1.027-1.011-1.693-.223-.44-.067-1.892-.115-2.474-.08-.943-.331-1.685-1.12-1.901 2.37-1.307 4.945-2.373 7.487-3.006l.727-.18z"/>
        <path fill="#EDC225" d="M95.16 157.72c-.163-1.06-.232-2.069-.059-2.744.153-.59 1.205-.938 1.553-1.549.505-.887-.424-3.22-.324-4.173.14-1.34 1.524-.954 2.384-1.232 1.056-.34.441-1.561 1.261-1.962.947-.463.725.74 1.706.13.435-.27.918-1.422 1.097-1.94.188-.542.667-.723.977-.972.837-.675 1.66-1.26 2.07-1.276.919-.036 1.083.485 1.161 1.393.074.846-.158 2.066.191 2.735.376.717.835.892.998 1.562.202.827-.253 1.22-.75 1.831-1.418 1.741-.19 3.276.941 4.258.673.584.681 1.155.597 1.867-.2 1.718-1.526 2.832-2.518 3.157-.434.143-.958.173-1.495.195.126-.486.453-1.047.53-1.617.156-1.129-.142-2.253-1.278-2.735-.82-.348-1.688.13-2.338.673a79.362 79.362 0 0 0 1.819-5.034c.64-.552 1.394-1.18 2.112-1.888-.786.546-1.352.941-1.945 1.355.493-1.603.912-3.226 1.159-4.738-.775 3.288-2.391 7.56-3.864 11.009-.143.152-.3.316-.453.461-.45-2.421-.81-4.277-1.4-5.702.433 1.896.807 3.966.906 6.081a.528.528 0 0 1-.078.03c-.56.158-1.372-1.07-2.617-.922-1.273.152-1.563 1.35-2.342 1.747M119 112.29c.003-.696.106-1.34.415-1.866.6-1.02 2.239-.367 2.9-1.24.605-.796-.266-3.496.913-5.567.48-.843 1.823-.681 2.718-1.058 1.206-.508.517-.514 1.523-.929 1.143-.469 1.267-1.268 1.983-1.6.413-.192.88.504 2.03-.758.56-.615 1.473-.986 2.078-1.106.612-.122 1.322-.447 1.363.383.04.808-.337 3.326-.864 4.46-.383.822 1.298.856 1.24 1.784-.022.348-.845.92-.653 1.51.28.852 1.245.473 1.35 1.599.072.77-.767 1.884-2.116 2.96-.612.489-2.656 1.545-3.12 2.05-.494.54-.755 1.091-.317 1.71.726 1.034.055 1.641-.924 2.378a5.348 5.348 0 0 0-1.034-1.956c-.179-.212-.93-.881-1.006-1.021-.069-.195-.01-1.057-.082-1.42a2.255 2.255 0 0 0-.243-.67c1.624-.26 4.06-.736 5.187-1.178-1.697.371-4.07.688-5.52.739a2.292 2.292 0 0 0-.512-.384c1.593-2.523 5.432-7.026 7.073-8.862-1.732 1.597-6.299 6.206-7.53 8.657a3.992 3.992 0 0 0-.482-.137c-1.068-.234-3.033.372-4.067.706-.775.25-1.542.527-2.303.817"/>
        <path fill="#EDC225" d="M134.468 97.547a.94.94 0 0 1-.035.453l.003-.047c.009-.134.02-.27.032-.406m-7.933-10.514c.13-.872.456-1.653 1.048-1.99 1.157-.658 1.825-.484 2.792-1.025 1.098-.612.565-1.28 1.248-1.702.393-.242 1.013.244 1.825-.75.527-.647.861-1.076 1.46-1.275.607-.2 1.474-.627 1.445.193-.029.785-.06 2.512-.164 3.911-.066.893 1.17.577 1.242 1.493.027.342-.55 1.495-.27 2.047.404.797 1.98-.21 1.829 1.209-.103.96-.798 2.299-2.335 3.357-.74.51-2.12 1.298-2.607 2.614-.272-.47-.64-.87-1.09-1.238-.215-.175-1.438-.943-1.553-1.083a4.761 4.761 0 0 1-.023-.254c1.505-.684 3.477-1.661 4.381-2.32a40.17 40.17 0 0 1-4.407 1.897 3.881 3.881 0 0 0-.024-.257c.873-2.94 2.143-6.7 2.788-8.497-.487 1.025-1.259 2.87-2 4.844-.474-.774-.807-1.278-1.417-2.277.42 1.077.882 1.954 1.244 2.741-.303.82-.595 1.65-.858 2.446a1.315 1.315 0 0 0-.113-.16c-.215-.266-.496-.415-.823-.516-.085-.028-.392-.1-.474-.146-.321-.565-.502-1.13-.869-1.702-.45-.7-1.357-1.56-2.275-1.56m-4.52 8.68a4.248 4.248 0 0 1-.006-.628c.076.265.134.481.006.628"/>
        <path fill="#EDC225" d="M121.721 104a3.14 3.14 0 0 1-.152-.482c-.129-.592.654-1.367.69-2.063.053-1.01-1.824-2.67-2.162-3.56-.478-1.25.933-1.521 1.577-2.148.79-.77-.307-1.58.245-2.3.638-.829.979.335 1.582-.64.267-.432.272-1.308.2-1.846-.075-.565.272-1.28.436-1.656.219-.504.758-1.95 1.186-2.184.669-.44 1.638.402 2.115 1.171.445.717.53 1.146.855 1.736.253.457.975.29 1.335.748.298.379.2.762.296 1.59.063.535.937.807 1.76 1.501.493.417.983.96 1.23 1.786.142.48.076.992.027 1.657-.834.198-1.745.663-2.314 1.284-1.013 1.105-1.003.22-1.866.62-.367.168-.612.415-.845.67a47.148 47.148 0 0 0-.117-1.632c.498-.8 1.175-1.77 1.765-2.838-.743.926-1.229 1.53-1.817 2.267-.283-2.946-.786-6.23-1.119-7.807.25 2.24.714 7.278.84 10.488-.19.18-.41.343-.705.464-.358.146-.656.288-.916.578-.155.173-.435.278-.644.365-1.023.428-2.4.152-3.084 1.346a5.014 5.014 0 0 0-.398.885"/>
        <path fill="#EDC225" d="M124.353 89c-.845-.65-1.532-1.473-2.04-1.929-1.15-1.032-.423-.254-1.116-1.247-.55-.79.148-1.853.935-2.38.514-.344.798-.858.835-1.198.106-.975-1.173-2.047-1.554-3.2-.33-.992.349-3.013 2.595-3.357.668-.103.476-1.266.855-1.605 1.086-.972 2.2.438 2.116-1.365-.025-.55.202-1.227.387-1.583.248-.477.867-1.852 1.313-2.058.381-.216.744.053 1.15.367.337.26.733.519.935.867.415.714.478 1.133.778 1.72.234.455.931.359 1.316.787.283.316.256.66.22 1.468-.022.52 1.048.912 1.846 1.623.48.426.812.649 1.018 1.46.103.398.051 1.003-.017 1.6-.287.009-.58.098-.845.19-.128.043-.254.09-.381.132-.815.266-1.263.854-1.772 1.472-.64.774-.976.18-1.677.607-.946.578-.416 1.23-1.23 1.68-.304.167-.596.26-.934.343l-.205.052c.181-1.166.326-2.707.432-4.3.615-.729 1.481-1.645 2.22-2.62-.868.81-1.487 1.387-2.184 2.04.15-2.502.206-5.032.152-6.347-.118 1.933-.443 6.078-.809 9.164-1.073-1.067-2.434-2.312-3.483-2.8 1.275 1.007 2.531 2.342 3.41 3.404-.075.592-.15 1.13-.227 1.592a5.446 5.446 0 0 0-1.189.494c-.91.511-1.285 1.633-1.402 2.683-.026.014-.05.027-.076.043-.601.342-1.065 1.495-1.372 2.201M122.834 111.368c1.03-.283 1.964-.449 2.5-.328 2.161.483 1.41 2.208 1.655 2.92.188.548 1.42.994 2.011 2.947-1.924 1.673-4.084 2.964-6.405 4.048-.632.294-1.268.57-1.908.834.12-.493.242-1 .363-1.52 1.355-.92 3.811-2.74 4.888-3.963-.933.805-3.439 2.61-4.735 3.296.279-1.23.556-2.537.834-3.94.605-.757 1.452-1.683 2.22-2.731l-2.08 2.013c.219-1.128.438-2.318.657-3.576zM115.03 124c-.036-.452-.043-.796-.007-.959.2-.897 1.402-1.014 2.01-1.868.534-.75.126-1.611-.32-2.695-.572-1.394-1.265-3.099-.71-4.784.138-1.342.917-.231 1.76-.51.266-.087 2.848-1.198 5.017-1.801a128.057 128.057 0 0 1-1.568 6.552c-1.007-1.297-2.503-3.005-3.594-3.904.853.927 2.76 3.158 3.46 4.404-.317 1.193-.65 2.391-.991 3.598-1.678.672-3.373 1.28-5.053 1.965l-.004.002z"/>
        <path fill="#D92E30" d="M69 8l-6.863 15.874L45 25.555l12.885 11.517L54.18 54 69 45.217 83.82 54l-3.705-16.928L93 25.555l-17.137-1.68z"/>
        <path fill="#EDC225" d="M69.358 17l-.445 14.76L54 27.696l14.504 5.27L60.019 45l9.377-11.425 9.015 11.146-8.089-11.824L84 28.08l-13.978 3.784z"/>
        <path fill="#D92E30" d="M42 171.007c3.96 3.381 7.467 7.01 11.938 10.177.86.61 1.039 1.047 2.1.684 3.253-1.114 8.509-1.94 12.691-1.965 4.316-.025 8.776.75 13.019 1.964 1.233.353 1.731-.199 2.671-.926 4.041-3.128 7.71-6.734 11.581-10.08-2.035.006-3.79-.04-5.744-.444-6.142-1.269-12.41-3.517-21.403-3.414-8.993.104-16.73 2.569-21.69 3.508-2.053.39-3.805.727-5.163.496"/>
        <path fill="#D92E30" d="M85.121 169.202c.097-1.582.15-3.482 1.163-4.641 1-1.145 2.631-.277 3.13-.728.198-.179.419-1.592.476-1.885.24-1.224.592-2.413 1.414-3.382.817-.962 1.977-.482 2.945-.523-.173-1.119-.247-2.22-.047-3 .24-.93 1.27-1.129 1.58-1.677.3-.531-.488-2.974-.396-3.86.053-.505.255-.951.675-1.248.715-.505 1.394-.275 2.09-.501.503-.162.065-1.364 1.148-1.897.346-.173.844-.192 1.088.033a.917.917 0 0 0 .238.168l.027-.034a1.73 1.73 0 0 1 .64-.463l.426-.931c.18-.692.454-1.383.77-2.074.82-1.839 1.596-3.703 2.371-5.561 1.006-2.41 1.975-4.872 3.03-7.257 1.425-3.221 3.308-4.08 6.164-5.26-.052-.583-.063-1.067-.002-1.338.283-1.247 1.55-1.292 2.11-2.068.37-.512-.183-1.54-.39-2.035-.673-1.62-1.302-3.328-.745-5.083.058-.46.224-.924.696-1.102.6-.226 1.145.246 1.484.136.29-.097.595-.225.893-.347-.019-.884.088-1.74.499-2.444.768-1.314 2.533-.769 2.937-1.308.16-.212.113-1.64.113-1.94.004-.59.032-1.175.128-1.746-.253-.464-.443-.91-.529-1.312-.2-.934.63-1.576.664-2.21.031-.61-1.764-2.44-2.078-3.274-.177-.473-.196-.965.047-1.42.276-.515.685-.731 1.08-.97-.1-.786-.081-1.556.2-2.236.419-1.014 1.483-1.142 2.168-1.355a4.482 4.482 0 0 0-.003-1.036c-.07-.54.097-1.067.3-1.567-.776-.617-1.397-1.416-2.143-2.125-.178-.17-.66-.565-.795-.762-.127-.184-.243-.426-.373-.624-.76-1.154.076-2.597 1.062-3.298.216-.153.515-.498.543-.774.047-.457-.602-1.355-.84-1.737-.25-.403-.49-.826-.632-1.282-.25-.797-.032-1.764.375-2.471.555-.969 1.474-1.572 2.56-1.767.18-.316.077-1.029.56-1.487a1.99 1.99 0 0 1 1.31-.564c.133-.007.365.016.528.017.013-.123.009-.29.006-.363-.027-.607.17-1.381.437-1.925.318-.651.85-1.978 1.49-2.36.108-4.25.156-8.502.287-12.754-5.1-.784-10.48-2.94-15.134-5.034-6.066-2.731-11.979-5.9-17.84-9.045-3.42-1.835-6.836-3.682-10.28-5.471l-1.936 1.735 1.787 8.182c1.5.804 3 1.606 4.503 2.403 4.982 2.645 9.985 5.256 15.068 7.701 4.28 2.06 8.632 4.046 13.122 5.6l1.947.673-.11 2.062c-.74 13.866-2.077 27.86-5.803 41.277-6.736 24.252-19.81 44.004-36.722 61.877 1.36.183 2.72.416 4.088.692 1.485.299 2.958.647 4.431 1zm-21.787 12.06A237.396 237.396 0 0 0 68.997 186c1.967-1.522 3.9-3.086 5.805-4.684a39.971 39.971 0 0 0-6.005-.44c-1.666.01-3.56.14-5.463.385zm-10.405-12.023a126.2 126.2 0 0 1 3.632-.796 82.988 82.988 0 0 1 5.16-.873c-17.077-16.724-30.94-38.9-37.285-61.655-.45-1.615-.857-3.24-1.226-4.876-.94 2.818-1.363 6.732-.993 9.406.17 1.224.318 2.54.36 3.853.412-.348.841-.677 1.292-.987l.948-.652.038 1.153c.105 3.161.67 7.333 1.731 10.304.334.932.735 1.829 1.148 2.719.407.318.783.663 1.124 1.042.904 1.002 1.456 2.311 2.112 3.993.628 1.607 1.962 5.107 2.558 6.797l1.61-2.537.284 1.542c.532 2.896 1.72 6.838 3.084 9.382 1.068 1.994 2.511 3.705 3.592 5.66 1.057 1.912 1.83 3.978 2.149 6.125 2.365 1.468 4.298 3.208 6.26 5.302.753.804 1.734 3.215 2.422 5.098zM20.645 61.659c9.02-3.538 17.73-7.86 26.279-12.414a510.313 510.313 0 0 0 6.15-3.332l1.785-8.178-1.71-1.532c-2.171 1.12-4.328 2.253-6.47 3.377-7.02 3.68-14.057 7.477-21.253 10.795-1.6.738-3.528 1.61-5.566 2.426-3.314 1.327-6.577 2.454-9.86 2.944.06 7.178.406 14.137.953 21.294.085 1.116.175 2.23.268 3.344a30.652 30.652 0 0 0 1.986 3.238c1.4-1.055 2.89-1.91 4.359-2.425l1.225-.431-.421 1.232c-.992 2.907-1.15 7.93-.483 10.928.514 2.317.974 4.98.745 7.353a17.2 17.2 0 0 1-.083.703c1.38-.832 2.824-1.485 4.244-1.87-2.358-11.38-3.009-23.155-3.877-34.695l-.152-2.02 1.88-.736z"/>
        <path fill="#D92E30" d="M22 64.612c1.006 13.368 1.77 27.396 5.402 40.334C33.88 128.01 48.404 150.517 66.084 167c.93-.058 1.864-.094 2.8-.103a51.96 51.96 0 0 1 3.445.074c17.558-17.989 31.113-37.759 37.979-62.303 3.63-12.98 4.958-26.614 5.692-40.033-4.457-1.561-8.856-3.552-13.107-5.584-5.151-2.461-10.229-5.09-15.278-7.752-.666-.351-1.333-.703-1.999-1.056l1.938 8.815L68.809 48 50.065 59.058l1.932-8.785a547.032 547.032 0 0 1-3.642 1.947C39.797 56.748 31.021 61.07 22 64.612"/>
        <path fill="#3D3E8C" d="M97.016 135.515c5.649-9.481 10.164-19.669 13.292-30.848 3.63-12.979 4.957-26.613 5.692-40.032-4.456-1.562-8.857-3.552-13.108-5.584a308.678 308.678 0 0 1-5.876-2.887v79.351zM59.69 160.629A137.881 137.881 0 0 0 66.084 167c.93-.059 1.863-.094 2.8-.104 1.159-.013 2.305.012 3.444.075a214.566 214.566 0 0 0 5.608-5.964V53.384L68.81 48l-9.12 5.38V160.63zM22 64.612c1.007 13.368 1.77 27.396 5.402 40.334 2.919 10.39 7.47 20.667 13.207 30.33v-79.06C34.52 59.267 28.32 62.131 22 64.612z"/>
        <path fill="#EDC225" d="M53.823 40.813l-17.56 9.111c-2.793 1.428-5.597 2.837-8.438 4.164-3.953 1.846-8.146 3.653-12.348 4.826L15.17 59l-.17-.619.307-.086c4.167-1.163 8.33-2.957 12.25-4.788 2.835-1.325 5.631-2.73 8.416-4.155L54 40l-.177.813zM84 40l18.355 9.514c2.743 1.4 5.495 2.782 8.286 4.085 3.858 1.8 7.954 3.564 12.057 4.708l.302.085-.167.608-.303-.085c-4.136-1.154-8.262-2.93-12.153-4.744-2.798-1.305-5.557-2.691-8.307-4.095L84.174 40.8 84 40zM14.64 60.313c.041 7.16.689 14.262 1.36 21.377-.205.098-.408.202-.612.31-.681-7.218-1.345-14.421-1.386-21.683L14 60.004l.638-.004.002.313zM123.999 60.314c-.02 4.85-.242 9.673-.532 14.492A2.309 2.309 0 0 0 123 75c.297-4.886.525-9.774.545-14.69l.001-.31.454.004-.001.31zM95.982 153.014c-4.138 5.571-8.583 10.872-13.27 15.986l-.712-.157c4.903-5.333 9.543-10.869 13.845-16.703.058.313.109.613.137.874zm6.333-9.266a126.75 126.75 0 0 1-1.69 2.647 1.39 1.39 0 0 1-.085-.07c-.123-.115-.311-.166-.512-.167a138.197 138.197 0 0 0 4.183-6.802 180.594 180.594 0 0 1-1.57 3.638 18.39 18.39 0 0 0-.326.754zm12.86-26.344a167.821 167.821 0 0 1-3.374 8.627 9.74 9.74 0 0 0-.93.566c1.494-3.44 2.837-6.949 4.1-10.48.023.433.096.862.205 1.287zm1.723-4.9l-.283.824c-.204-.054-.426-.087-.657-.024l.344-1.005.102-.299.596.205-.102.299zM36.834 144.644c1.17 1.82 2.384 3.612 3.648 5.37 4.77 6.623 9.977 12.856 15.518 18.836l-.724.15c-5.463-5.913-10.6-12.077-15.309-18.62l-.108-.148c-.625-.909-1.248-1.823-1.779-2.806-.439-.812-.859-1.766-1.246-2.782m-4.421-7.373c.277.495.558.989.841 1.481l-.188.294c-.17-.475-.399-1.095-.653-1.775M22 114l.197.563c-.054.044-.11.09-.164.137-.008-.234-.02-.467-.033-.7"/>
        <path fill="#231F20" d="M14.5 57a2.5 2.5 0 1 1-.001 5.001A2.5 2.5 0 0 1 14.5 57"/>
        <path fill="#EDC225" d="M15 57a2 2 0 1 1 0 4 2 2 0 0 1 0-4"/>
        <path fill="#231F20" d="M36.5 47a2.5 2.5 0 1 1-.001 5.001A2.5 2.5 0 0 1 36.5 47"/>
        <path fill="#EDC225" d="M36 48a2 2 0 1 1 0 4 2 2 0 0 1 0-4"/>
        <path fill="#231F20" d="M123.5 57a2.5 2.5 0 1 1-.001 5.001A2.5 2.5 0 0 1 123.5 57"/>
        <path fill="#EDC225" d="M124 57a2 2 0 1 1 0 4 2 2 0 0 1 0-4"/>
        <path fill="#231F20" d="M101.5 47a2.5 2.5 0 1 1-.001 5.001A2.5 2.5 0 0 1 101.5 47"/>
        <path fill="#EDC225" d="M102 48a2 2 0 1 1 0 4.001A2 2 0 0 1 102 48"/>
        <path fill="#231F20" d="M32.362 63.567l11.587-2.618 1.089 3.466 5.544-4.527L62.89 59 71 65.103l-.622 29.708.537 8.15-6.859 6.958-14.235.638-3.122-2.65-.54 8.725L32.363 118l-3.845-4.857-6.78 1.335L9 108.228l12.606-42.17z"/>
        <path fill="#EDC225" d="M23.166 95.536l3.453-.52L33.4 65.313l9.223-2.1-5.116 30.323 1.715-.11 4.012-25.284 7.474-6.266L62.181 61l6.743 5.23-.01 10.027-10.88.06.118-6.862-4.504.21-2.509 22.838 6.432-.272.59-10.28L69 81.595l-.265 13.19-8.142 6.422-14.908.988-5.35-4.505-1.645 12.448-10.862.862.988-6.85L11 107.196l11.635-39.488 7.963-1.753z"/>
        <path fill="#FFF" d="M23.105 68.452L12 106.034l17.696-3.018-1.01 6.984 8.968-.711 1.782-13.435 6.414 5.386 14.312-.947 7.6-5.978L68 82.538l-9.026.296-.594 10.298-8.433.354 2.732-24.798 6.414-.295-.12 6.747h8.909l.059-8.405L61.765 62l-10.927.829-6.889 5.74-4.098 25.746-3.681.238 5.106-30.185-7.304 1.657-6.83 29.83-5.522.828 7.364-29.415z"/>
        <path fill="#231F20" d="M82.583 67.949l3.4-8.249 12.694 2.258-1.454 4.159 4.165-3.458 15.283 4.26L130 108.829 119.18 115l-16.48-2.585-16.086-1.726-2.454-4.267-.5 4.13L68 110.1 68.594 59l13.414.527z"/>
        <path fill="#EDC225" d="M106.648 72.204l3.564 14.887 3.887.54-4.352-14.533-3.099-.894zm-24.9 1.001l5.068-12.392 10.172 1.823-5.68 16.372 10.298 16.819-5.017-27.816 5.084-4.255 13.92 3.912L128 107l-9.842-2.145-1.937-7.846-3.536-.31 1.44 7.657-10.438-1.566-11.39-.995-9.623-16.76 1 16.113-13.114-.28L70 60l10.886.432.863 12.773z"/>
        <path fill="#FFF" d="M105.604 71.68l4.124 16.837 6.037.822-4.961-16.192-5.2-1.467zM71 62l.538 38.309 11.235.235-1.194-18.832 11.475 19.536 10.996.938 9.204 1.35-1.434-7.451 5.498.47 1.973 7.802L127 106l-11.833-36.667-13.03-3.578-4.303 3.52 5.858 31.738-13.268-21.178 5.498-15.488-8.367-1.467-6.275 15.605-1.196-16.133L71 62zM69.5 113c11.872 0 21.5 9.628 21.5 21.5S81.372 156 69.5 156 48 146.372 48 134.5 57.628 113 69.5 113"/>
        <path fill="#231F20" d="M50.67 123.013c1.018-.59 2.113-1.092 3.156-1.34a19.602 19.602 0 0 1 8.23-5.955c.643-1 1.4-1.873 2.302-2.58-5.8 1.286-10.716 4.93-13.687 9.875m2.42 25.248c-.263-1.143-.418-2.335-.349-3.401a19.444 19.444 0 0 1-3.27-9.9c-.753-.92-1.35-1.91-1.745-2.986a21.434 21.434 0 0 0-.096 2.026c0 5.48 2.066 10.479 5.46 14.26m24.286 5.402c-1.17-.12-2.351-.358-3.34-.768a19.561 19.561 0 0 1-5.037.657c-1.676 0-3.3-.211-4.853-.608-1.102.448-2.225.725-3.371.783A21.29 21.29 0 0 0 69 155.368c2.973 0 5.804-.608 8.377-1.706m12.909-21.55c-.476 1.076-1.066 2.125-1.762 2.938a19.451 19.451 0 0 1-3.161 9.65c.068 1.184-.03 2.333-.342 3.435A21.283 21.283 0 0 0 90.368 134c0-.636-.028-1.265-.082-1.887m-6.054-10.369c1.151.301 2.217.751 3.171 1.392-2.939-4.97-7.834-8.645-13.623-9.968.874.784 1.69 1.67 2.249 2.583a19.609 19.609 0 0 1 8.203 5.993m-30.341 7.07l8.296 2.696a20.687 20.687 0 0 1 6.55-4.773v-8.652c-1.703-1.193-3.766-1.918-6.335-1.935a19.073 19.073 0 0 0-8.347 6.078c-.74 2.327-.791 4.587-.164 6.587m5.866 18.087l4.803-6.8a20.742 20.742 0 0 1-2.624-8.12l-8.153-2.65c-1.657 1.25-2.982 2.983-3.793 5.414a18.932 18.932 0 0 0 3.352 10.059c2.06 1.43 4.266 2.147 6.415 2.097m18.343.165l-4.85-6.674a20.7 20.7 0 0 1-8.244-.011l-4.899 6.937c.715 1.892 1.97 3.616 4 5.069 1.563.415 3.201.637 4.893.637 1.79 0 3.521-.247 5.163-.71 1.995-1.464 3.29-3.215 3.937-5.248m-1.903-15.476l7.864-2.783c.6-1.978.65-4.152-.121-6.585a19.07 19.07 0 0 0-8.35-6.076c-2.446.014-4.616.664-6.327 1.879v8.57a20.707 20.707 0 0 1 6.934 4.995m8.054-2.292l-7.889 2.792a20.734 20.734 0 0 1-2.64 8.058l4.858 6.686c2.044-.072 4.183-.792 6.24-2.266a18.924 18.924 0 0 0 3.191-9.828c-.773-2.327-2.067-4.193-3.76-5.442M69 112c12.148 0 22 9.851 22 22 0 12.148-9.852 22-22 22s-22-9.852-22-22c0-12.149 9.852-22 22-22"/>
        <path fill="#EDC225" d="M68.966 172.058v3.867h-.459c-.247 0-.428-.158-.428-.43v-2.932c0-.386.168-.505.43-.505h.457zm1.078 3.867v-3.867l.388-.002c.281-.002.49.03.49.567v2.872c0 .333-.193.424-.382.426l-.496.004zm0 2.075v-1.364l.915-.002c.555-.001 1.041-.277 1.041-1.176v-2.987c0-.77-.62-1.13-1.193-1.13h-.772V170h-1.07v1.34h-.786c-.557 0-1.179.357-1.179 1.13v3.017c0 .877.527 1.15 1.091 1.15h.875V178h1.078zM15 125.899c.435-.09.895-.203 1.164-.899l.812.114L19 133l-1.288-.17-1.543-6.211-.99.01-.179-.73zM119.868 126.459c.444-.164.94-.413 1.465-1.311L122 125l-1.99 7.761L119 133l1.462-5.968-.802.217.208-.79zM114.886 128.459c.44-.164.93-.413 1.454-1.311L117 127l-2 7.761-1 .239 1.471-5.968-.794.217.209-.79zM23.363 131.037l-.65-2.675c-.06-.245-.175-.489-.482-.543-.345-.06-.267.283-.218.49l.594 2.579c.067.29.26.432.43.465.141.027.437.139.326-.316m.475-2.106l1.1 4.737c.24 1.03-.256 1.397-.839 1.323l-.447-.056c-.861-.107-1.405-1.055-1.506-1.51l-.145-.66 1.06.245.143.648c.047.207.248.474.516.528.201.04.369-.038.282-.422l-.384-1.717c-.162.06-.384.047-.627.012-.896-.129-1.265-.626-1.469-1.594l-.471-2.232c-.211-1.004.263-1.288.918-1.224l.29.028c.913.087 1.35.91 1.58 1.894M62.778 171L64 178.646l-1.203.11-1.094-6.847-1.371.123 1.098 6.858-1.204.11L59 171.337zM76.276 171.132L75.067 171 74 178.596l1.209.132.556-3.956.914 4.096 1.208.132-.953-4.174 2.066-3.33-1.208-.134-2.015 3.325z"/>
    </g>
</svg>
