<svg xmlns="http://www.w3.org/2000/svg" xmlns:xlink="http://www.w3.org/1999/xlink" width="298" height="107" viewBox="0 0 298 107">
    <defs>
        <path id="a" d="M0 0h297.5v106.029H0z"/>
    </defs>
    <g fill="none" fill-rule="evenodd">
        <mask id="b" fill="#fff">
            <use xlink:href="#a"/>
        </mask>
        <path fill="#59595C" d="M32.817 105.986c-8.864-.352-16.119-2.776-21.789-7.282-1.082-.861-3.66-3.443-4.525-4.531-2.3-2.891-3.863-5.704-4.907-8.828C-1.612 75.734.041 63.122 6.32 49.279 11.697 37.429 19.997 25.678 34.474 9.4 36.606 7.006 42.957 0 42.997 0c.015 0-.329.599-.765 1.33-3.765 6.306-6.986 13.733-8.74 20.163-2.819 10.316-2.479 19.168.995 26.035 2.397 4.729 6.506 8.825 11.126 11.09 8.09 3.964 19.931 4.293 34.394.96.996-.231 50.335-13.328 109.644-29.105 59.31-15.78 107.844-28.682 107.85-28.671.017.015-137.792 58.984-209.33 89.576-11.33 4.843-14.36 6.067-19.685 7.936-13.615 4.78-25.812 7.064-35.669 6.672" mask="url(#b)"/>
    </g>
</svg>
