<svg xmlns="http://www.w3.org/2000/svg" width="146" height="15" viewBox="0 0 146 15">
    <g fill="#DADBDB" fill-rule="evenodd">
        <path d="M4.237 14.924c-1.677 0-3.005-.32-4.175-1.008V11.71c1.711.864 2.658 1.021 4.051 1.021 1.616 0 2.542-.723 2.542-1.982 0-1.167-.624-1.41-2.275-2.01l-1.019-.333c-2.293-.77-3.36-2.172-3.36-4.21C0 1.647 1.85 0 4.713 0 6.202 0 7.445.27 8.412.8v2.09c-1.123-.595-2.17-.74-3.213-.74-1.444 0-2.655.54-2.655 1.796 0 .97.511 1.42 1.883 1.905l1.018.333c2.865.903 3.88 2.105 3.88 4.336 0 2.756-1.902 4.402-5.088 4.402M14.515 14.654V2.19h-4.023V.27h10.84v1.92H17.33v12.464zM40.107 14.84L34.11.27h2.958l3.79 9.822L44.897.27h2.419v.028L41.278 14.84zM72.1 14.903L63.388 4.794v9.86h-2.173V.062h1.427l8.653 10.061V.27h2.169v14.633zM92.106.27v1.009l-7.613 11.556h7.51v1.819H80.79v-.864l7.718-11.704h-6.806V.27zM112.346 6.2h2.356c1.537 0 2.253-.767 2.253-2.105 0-1.293-.77-2.068-2.356-2.068h-2.253V6.2zm0 6.677h2.418c2.024 0 2.813-.773 2.813-2.38 0-1.536-.894-2.394-2.813-2.394h-2.418v4.774zm-2.773 1.778V.27h5.191c3.225 0 4.86 1.224 4.86 3.636 0 1.696-.799 2.622-2.234 3.03 1.934.46 3.001 1.8 3.001 3.605 0 2.69-1.802 4.114-5.212 4.114h-5.606zM123.031 14.654V.27h8.496v1.794h-5.723v4.304h4.935v1.755h-4.935v4.733h5.785v1.798zM137.417 7.174h2.024c1.934 0 2.875-.964 2.875-2.647 0-1.629-.918-2.5-2.978-2.5h-1.921v5.147zm5.573 7.48l-3.358-5.495h-2.215v5.495h-2.773V.27h4.963c3.495 0 5.42 1.556 5.42 4.382 0 1.93-.933 3.262-2.7 3.85l-.14.047 3.814 6.07v.035h-3.011zM103.704.27v10.27c-.524.983-1.965 2.108-3.666 2.108-2.081 0-2.85-1.256-2.85-3.537V.27h-2.815v8.903c0 3.64 1.795 5.73 5.582 5.73 1.723 0 3.118-.974 3.749-1.63v1.382h2.545V.27h-2.545zM49.602 14.654V.27h8.496v1.794h-5.723v4.304h4.935v1.755h-4.935v4.733h5.785v1.798zM23.702 14.654V.27h8.496v1.794h-5.723v4.304h4.935v1.755h-4.935v4.733h5.785v1.798z"/>
    </g>
</svg>
