<svg xmlns="http://www.w3.org/2000/svg" xmlns:xlink="http://www.w3.org/1999/xlink" width="153" height="169" viewBox="0 0 153 169">
    <defs>
        <path id="a" d="M0 .042h152.111V169H0z"/>
    </defs>
    <g fill="none" fill-rule="evenodd">
        <g transform="translate(.817)">
            <mask id="b" fill="#fff">
                <use xlink:href="#a"/>
            </mask>
            <path fill="#CA1F31" d="M76.085 169c-21.991-16.658-37.672-33.206-48.844-49.32-11.305-16.303-17.76-32.218-21.938-47.215C1.45 58.625.525 42.95.16 28.277-.096 17.909.027 8.413.046.042L152.111.05c-.134 8.37.083 17.86-.099 28.228-.258 14.675-1.29 30.35-5.144 44.188-4.175 14.997-10.631 30.912-21.939 47.217-11.171 16.112-26.85 32.66-48.844 49.318" mask="url(#b)"/>
        </g>
        <path fill="#FFF" d="M4.854 3c.643 40.124-8.543 100.283 72.461 162 81.008-61.71 71.823-121.868 72.465-161.992"/>
        <path fill="#CA1F31" d="M43.712 87.81h-2.136v-7.778a7.427 7.427 0 0 1-2.759 1.566v-1.875c.557-.176 1.16-.509 1.816-1.001.653-.492 1.104-1.067 1.347-1.722h1.732v10.81zM48.737 82c-.553-.226-.955-.534-1.204-.929a2.357 2.357 0 0 1-.375-1.295c0-.805.289-1.467.868-1.99.58-.525 1.405-.786 2.475-.786 1.062 0 1.881.26 2.467.786.587.523.88 1.185.88 1.99 0 .497-.137.943-.405 1.334-.268.389-.646.684-1.133.89.62.241 1.088.59 1.41 1.05.322.462.485.991.485 1.592 0 .995-.33 1.804-.986 2.423-.655.622-1.529.935-2.62.935-1.013 0-1.856-.258-2.53-.772-.795-.607-1.194-1.439-1.194-2.498 0-.582.15-1.115.45-1.603.296-.486.77-.861 1.412-1.127zm.443-2.078c0 .411.12.732.36.961.24.23.56.347.961.347.408 0 .731-.118.973-.35.246-.23.366-.552.366-.965 0-.388-.12-.696-.364-.929-.239-.233-.557-.348-.952-.348-.411 0-.738.118-.981.352-.245.235-.363.545-.363.932zm-.2 4.612c0 .568.152 1.011.453 1.33a1.5 1.5 0 0 0 1.13.477c.44 0 .805-.154 1.092-.459.292-.307.434-.748.434-1.326 0-.505-.146-.91-.44-1.215-.294-.307-.667-.458-1.117-.458-.523 0-.913.172-1.167.52a1.872 1.872 0 0 0-.385 1.131zm49.898.786l2.068-.22c.05.407.183.707.396.903.212.194.494.293.845.293.439 0 .814-.196 1.124-.587.308-.393.506-1.206.592-2.438-.537.602-1.209.9-2.016.9-.874 0-1.63-.322-2.268-.977-.638-.654-.955-1.506-.955-2.554 0-1.09.335-1.969 1.008-2.639.672-.668 1.528-1.001 2.567-1.001 1.13 0 2.058.422 2.782 1.266.725.845 1.088 2.234 1.088 4.168 0 1.966-.378 3.387-1.133 4.258-.755.873-1.738 1.308-2.952 1.308-.87 0-1.574-.226-2.111-.672-.54-.448-.885-1.117-1.035-2.008zm4.836-4.509c0-.666-.161-1.183-.476-1.55-.317-.367-.682-.55-1.098-.55-.395 0-.725.15-.985.45-.262.303-.393.797-.393 1.48 0 .696.142 1.207.426 1.532.285.324.64.488 1.065.488.411 0 .755-.157 1.038-.468.28-.317.423-.776.423-1.382zm3.7 4.14l2.068-.241c.068.508.242.898.534 1.168.289.268.638.402 1.048.402.44 0 .814-.16 1.116-.482.301-.325.45-.76.45-1.31 0-.518-.144-.927-.433-1.231a1.406 1.406 0 0 0-1.056-.457c-.274 0-.6.053-.98.155l.235-1.68c.578.013 1.017-.107 1.323-.364.303-.257.455-.599.455-1.025 0-.363-.11-.65-.334-.867-.222-.215-.52-.323-.89-.323a1.3 1.3 0 0 0-.934.368c-.259.245-.417.602-.472 1.072l-1.97-.324c.137-.65.343-1.17.62-1.561.275-.388.662-.695 1.154-.918A4.004 4.004 0 0 1 111.01 77c1.052 0 1.893.323 2.525.97.524.528.785 1.126.785 1.792 0 .942-.535 1.696-1.606 2.261.641.13 1.152.429 1.534.89.38.457.57 1.013.57 1.663 0 .947-.354 1.75-1.07 2.417-.713.668-1.604 1-2.668 1-1.009 0-1.844-.28-2.507-.843-.667-.56-1.051-1.293-1.158-2.199zM120.61 32.192c-2.255-3.57-6.313-6.029-9.44-7.965 2.08-2.845 7.644-6.3 12.553-6.183 7.049.167 12.701 8.49 5.97 13.508-1.55 1.155-4.103 1.208-9.084.64M116.891 9.2c-5.897-2.472-12.125-2.335-16.682.307-4.022 2.33-6.738 6.61-6.773 12.772a11.291 11.291 0 0 1-.916 3.817l-.036-.049c-1.99 3.305-5.31 6.606-9.03 6.325-.666-3.33-2.856-7.874-4.96-10.772 2.265.12 5.98 2.513 6.786 4.235 1.86-2.03 4.51-7.077 3.901-11.157-3.7 0-7.297-.862-10.996-2.453 0 2.5-4.336 8.524-7.342 9.888 1.504 2.24 2.772 7.107 2.71 11.467-2.229 1.831-5.163 2.17-7.53 2.124-1.812-2.829-4.254-4.915-4.289-8.463-.035-3.682 3.586-8.98 7.484-12.412l-1.938-2.424c-2.438.844-4.521 2.253-6.364 4.104l-.1-.142C58.593 13.133 54.769 7.337 49.226 6c-1.59.55-3.772 3.897-5.395 7.322-5.974 1.227-10.719 5.57-12.691 9.239-2.06-1.727-3.538-3.531-3.645-5.819-.293-6.228 7.798-5.208 11.762-3.419L39.29 8.8c-5.897-2.47-12.127-2.333-16.683.307-4.02 2.33-6.738 6.611-6.773 12.773-.01 4.201-2.584 7.58-8.006 9.36 2.36 1.039 5.607.244 9.945-1.05-2.114 2.978-4.665 4.514-9.956 5.658 3.307 1.145 8.437.691 13.088-.83-1.203 2.627-5.19 4.893-12.67 5.77 6.533 2.185 9.686 1.478 16.417-.528 9.414-2.807 15.527 4.885 4.544 7.555-2.666.649-5.93-.552-9.217-1.932l-3.124 3.84c4.295 2.239 11.67 3.985 15.173 3.919 10.754-.205 15.192-8.743 12.514-17.331-1.707-5.472-6.53-8.679-10.614-11.622 3.594-4.915 16.521-10.576 21.118.881-2.061 4.888-2.988 10.11-2.79 13.95.354 6.88 7.4 13.304 2.917 16.76-1.092.774-3.916 1.926-6.075 2.616-9.348-.55-15.005-5.365-22.146-5.706-5.351-.256-9.61.217-12.351 4.254-3.888 5.729-.374 15.313 8.182 15.482.094-3.404.929-5.222 1.552-6.472-2.63 0-8.428.449-8.422-3.355.004-1.938 1.644-2.565 3.51-2.607C28.8 60.28 37.026 72.626 48.096 73.37c.074-5.502 8.179-11.953 14.464-7.562 3.031-4.466 2.527-8.356.606-11.514 3.267-3.625 4.713-7.752 4.782-12.13a11.064 11.064 0 0 0-.339-2.95c2.025-.297 4.584-.955 5.952-1.936V77c1.84-.256 2.365-.573 4.06-1.933v-6.515c1.86-.234 3.91-.32 5.866-1.97V36.014c3.477-.157 8.679-1.954 11.957-5.655l.056-.015c-.988 3.593-3.79 6.85-9.08 7.994 3.932 1.269 8.687-.292 12.338-2.918-.953 2.626-4.817 6.982-11.92 7.858 6.531 2.184 9.185-.12 15.915-2.126 9.415-2.806 15.026 4.394 4.043 7.064-2.664.648-5.927-.552-9.214-1.933l-3.128 3.84c4.298 2.24 11.672 3.986 15.177 3.919 10.402-.198 14.896-8.196 12.75-16.494 9.268.67 16.709 16.27 8.956 20.364-3.135 1.654-5.85 1.156-8.951.524-6.847-1.392-11.957-4.55-17.832-4.83-5.35-.257-9.609.202-12.35 4.24-3.889 5.728-.375 15.312 8.18 15.48.096-3.405.93-5.222 1.555-6.473-2.63 0-8.43.449-8.423-3.354.003-1.94 1.642-2.566 3.511-2.607 9.376-.211 17.6 12.134 28.671 12.879.073-5.502 8.178-11.952 14.464-7.563 3.105-4.578 2.498-8.553.459-11.751 3.4-4.463 5.499-9.054 4.902-12.893-.442-6.487-6.138-8.49-6.188-13.92-.033-3.683 3.585-8.981 7.483-12.415l-1.937-2.423c-2.36.817-4.593 2.163-6.512 3.892-2.231-3.247-6.04-8.972-11.543-10.298-1.59.55-3.772 3.898-5.393 7.321-5.975 1.23-10.704 5.467-12.676 9.136-2.4-2.014-5.542-6.198-2.505-9.13 2.339-2.255 7.632-1.346 10.605-.003"/>
        <path fill="#221F1F" d="M77.315 161c-28.527-21.556-45.385-42.916-55.498-63.616 26.265-.81 43.481-8.28 55.498-17.384 14.347 9.868 33.382 17.942 55.502 17.378-10.112 20.697-26.971 42.057-55.502 63.622"/>
        <path fill="#F0CE00" d="M76.814 157c-25.867-19.477-40.426-38.029-49.997-56.533C46.257 98.877 63.703 93.54 76.814 84c13.117 9.535 30.56 14.876 50.003 16.462-9.575 18.506-24.13 37.057-50.003 56.538"/>
        <path fill="#221F1F" d="M53.12 107.53c1.155-.148 3.08-.733 4.279-.863-3.53-6.507 1.196-13.134 7.655-12.503-4.799 4.368-5.11 9.05-1.63 11.473 2.282-.178 3.855-.472 6.198-.582-3.455-5.541.93-12.72 6.789-12.005-3.307 3.012-4.549 8.685-.858 11.95 2.111-.048 4.222-.067 6.313-.06-2.412-6.053 2.082-12.28 8.493-10.367-3.306.94-5.852 7.276-2.487 10.482 2.233.075 4.42.189 6.54.341-1.414-4.632 1.253-9.574 7.207-7.653-2.754 1.823-4.675 5.236-2.35 8.083 2.94.317 6.434.98 8.92 1.478 2.476 1.144 4.656 2.978 5.628 3.52-22.998-3.144-45.09-2.808-60.309.296-6.615 3.305-10.168 4.04-13.474 1.088-.567-.781-.084-2.822 2.192-3.284-.047-2.546 2.409-2.674 4.815-2.674 1.958 1.615 3.887 1.817 6.078 1.28m6.32 13.587c.932-.134 1.881-.26 2.848-.375-3.145-5.147.367-10.138 5.452-10.246-3.57 3.957-3.16 7.523-.354 9.717 1.839-.16 3.712-.292 5.599-.391-3.748-4.412.635-9.482 5.65-10.09-2.423 2.59-3.965 6.948-.99 9.905 1.703-.043 3.405-.063 5.09-.054-2.542-4.884 1.92-8.895 6.125-9.056-2.305 2.204-3.996 6.257-1.283 9.159 1.799.07 3.563.17 5.273.311-1.59-3.45.648-6.309 4.964-7.14-1.856 2.057-2.923 4.95-1.05 7.53 2.37.285 5.186 1.353 7.193 1.804 1.99 1.146 2.583 1.503 4.174 2.65-18.542-2.848-38.71-2.202-48.737-.141-5.334 2.995-7.835 3.794-10.5 1.12-.457-.704-.068-2.557 1.767-2.972-.038-2.307 1.943-2.422 3.881-2.422 1.576 1.461 3.132 1.178 4.899.69m7.626 14.37c.868-.113 1.758-.223 2.66-.326-2.66-5.133.902-9.478 5.658-9.572-3.616 3.447-3.513 7.204-.89 9.113 1.719-.138 2.105-.19 3.87-.275-3.085-4.625.316-8.65 5.003-9.179-2.265 2.259-3.426 6.44-.645 9.016 1.591-.037 2.402-.053 3.978-.043-1.819-4.779 1.795-7.747 5.726-7.89-2.156 1.92-3.801 5.775-1.266 8.3 1.228.255 2.51.23 4.574.841 1.35.686 2.447 1.75 2.766 2.605-16.665-2.02-19.135-1.508-31.48.53-4.986 2.612-7.325 3.305-9.817.98-.427-.616-.064-2.229 1.65-2.589-.02-1.132.806-1.76 1.716-2.035 2.366-.718 3.58 1.272 6.497.525"/>
    </g>
</svg>
