<?xml version="1.0" encoding="utf-8"?>
<svg xmlns="http://www.w3.org/2000/svg" xmlns:xlink="http://www.w3.org/1999/xlink" width="265" height="179" viewBox="0 0 265 179">
    <defs>
        <path id="a" d="M.582.798H159.81V72H.582z"/>
    </defs>
    <g fill="none" fill-rule="evenodd">
        <path fill="#E02315" d="M109.724 81.043v24.093h5.731V86.774h9.492v-5.73h-15.223zm.37-12.023h22.372v-5.73h-22.372v5.73zm24.683-26.493H65.134v5.732H79.5c9.89 0 17.928 8.013 17.928 17.868 0 9.88-8.038 17.921-17.928 17.921h-5.749v5.732h5.75c4.612 0 8.922-1.333 12.57-3.626v18.982h5.727V81.103a23.54 23.54 0 0 0 5.365-14.976c0-7.139-3.199-13.54-8.232-17.868h39.845v-5.732h.001zM60.524 28.038a73.66 73.66 0 0 1 18.962-2.479v-5.728c-6.906 0-13.625.91-20.052 2.588l-.01-.032c-.272.071-.533.163-.8.244C27.963 30.976 4.207 57.201 0 89.611h21.16c1.201-5.393 3.35-10.374 5.854-14.782h6.313v-5.732l-9.555-.003c-2.747 4.35-5.269 9.328-7.008 14.8H6.815c4.736-21.368 18.742-39.226 37.397-49.348a23.587 23.587 0 0 0-2.63 10.817 23.55 23.55 0 0 0 4.764 14.23v24.301H32.128v5.731h19.95V65.02c3.756 2.522 8.274 4 13.131 4h14.277v-5.73H65.21c-9.869 0-17.897-8.043-17.897-17.926 0-8.095 5.418-15.164 13.212-17.326z"/>
        <g transform="translate(21 106.828)">
            <mask id="b" fill="#fff">
                <use xlink:href="#a"/>
            </mask>
            <path fill="#E02315" d="M154.274.798c-.51.75-1.026 1.5-1.55 2.255-5.328 7.664-12.474 16.436-20.726 25.055-.9.94-1.78 1.944-2.663 2.967a80.179 80.179 0 0 0 8.616-26.979h-21.328c-1.527 8.024-4.863 15.632-9.685 22.245V4.047h-5.732V41.32l4.924-5.075a61.154 61.154 0 0 0 15.065-26.478h9.943c-4.805 21.618-19.11 40.23-39.045 50.331l-.505.255v6.36l.505-.252a80.583 80.583 0 0 0 8.13-4.356c.162-.09.335-.2.53-.32.013-.007.027-.022.041-.028a78.87 78.87 0 0 0 3.577-2.375c23.01-15.568 41.45-36.325 53.174-53.223a255.626 255.626 0 0 0 2.264-3.329L154.274.798zM71.726 44.49V72h5.732V50.22h9.058v-5.73h-14.79zm0-14.109h20.581v-5.732h-20.58v5.732zm22.73-20.612v-5.73H52.75v25.26a23.566 23.566 0 0 0-13.992-4.586H25.282v5.732H38.76c9.886 0 17.928 8.017 17.928 17.864 0 9.88-8.042 17.922-17.928 17.922v5.731c13.047 0 23.66-10.612 23.66-23.653a23.43 23.43 0 0 0-3.933-13.007V9.768h35.97zm-70.25-5.816C11.177 3.952.582 14.54.582 27.552c0 13.043 10.595 23.65 23.624 23.65h14.412v-5.729H24.206c-9.869 0-17.896-8.039-17.896-17.92 0-9.852 8.027-17.869 17.896-17.869h6.867V3.952h-6.867z" mask="url(#b)"/>
        </g>
        <path fill="#E02315" d="M162.136 90.478c-.02-.01-.035-.025-.053-.038-.032-.025-.064-.043-.099-.067l.152.105m102.807 47.22c-.014-.147-.025-.297-.038-.444-.939-9.918-9.657-17.345-19.647-16.64a18.293 18.293 0 0 0-11.293 4.93l4.314 3.837a12.613 12.613 0 0 1 7.382-3.054c6.987-.493 13.071 4.79 13.565 11.777a12.638 12.638 0 0 1-3.072 9.22 12.64 12.64 0 0 1-8.702 4.35 12.615 12.615 0 0 1-7.096-1.595 13.72 13.72 0 0 1-1.235-.809c-1.298-.974-2.667-2.154-4.084-3.487-12.504-29.177-25.403-51.4-38.108-65.664 5.12-10.422 8.346-18.895 10.067-23.875l-5.199-2.546c-1.513 4.384-4.448 12.214-9.11 21.946-5.658-5.577-11.266-9.544-16.772-11.795l-2.172 5.304c11.571 4.73 29.693 20.468 51.4 67.608-2.156-2.949-4.413-6.569-6.657-9.179-6.25-7.255-13.332-15.48-20.933-23.123-5.915-5.947-12.429-9.019-18.728-11.985-4.723-2.225-9.178-4.328-13.319-7.555l-.074-.056-.074-.053a13.343 13.343 0 0 1-5.855-11.089c.011-3.774 1.922-7.199 3.947-10.825l2.645-4.754c3.263-5.862 4.607-8.296 5.104-9.633a17.912 17.912 0 0 0 1.231-7.019c-.258-10.409-7.848-17.66-18.46-17.628h-30.81c9.675-4.906 24.037-9.498 39.115-8.846 8.843.384 13.085 2.388 16.493 3.996 2.313 1.093 4.497 2.12 7.27 2.12 6.076 0 7.988-4.296 9.011-6.607l.334-.733.053-.099c.347-.772.76-1.51 1.231-2.19a13.311 13.311 0 0 1 8.617-5.548c3.516-.639 7.075.13 10.014 2.165a13.289 13.289 0 0 1 5.548 8.617 13.291 13.291 0 0 1-2.165 10.013c-2.269 3.273-5.436 5.425-8.69 5.905-2.594.384-5.063-.294-7.157-1.958-1.616-1.28-2.575-3.337-2.5-5.365.045-1.245.482-2.416 1.254-3.484l-4.779-3.147c-1.344 1.93-2.116 4.106-2.204 6.423-.138 3.87 1.605 7.633 4.662 10.062 3.32 2.635 7.425 3.75 11.56 3.14a16.1 16.1 0 0 0 3.03-.766c6.115 5.664 14.608 16.581 17.825 22.983.962 1.813 1.263 3.781.89 5.745a8.62 8.62 0 0 1-3.649 5.555 8.623 8.623 0 0 1-6.51 1.351 8.627 8.627 0 0 1-4.984-2.917l-4.567 3.503a14.344 14.344 0 0 0 8.482 5.043 14.32 14.32 0 0 0 10.804-2.24 14.337 14.337 0 0 0 6.056-9.227c.606-3.212.1-6.57-1.432-9.449-3.537-7.036-11.695-17.335-17.692-23.278a21.422 21.422 0 0 0 4.311-4.618 18.989 18.989 0 0 0 3.1-14.298 19.001 19.001 0 0 0-7.929-12.303A18.978 18.978 0 0 0 204.263.313a18.987 18.987 0 0 0-12.305 7.926 19.372 19.372 0 0 0-1.75 3.111c-.007-.003-.39.846-.39.846-1.018 2.278-1.515 3.206-3.779 3.206-1.485 0-2.81-.628-4.82-1.573-3.67-1.736-8.696-4.106-18.692-4.54-20.922-.91-40.685 7.65-49.922 14.19v6.112h41.376c7.431-.02 12.542 4.818 12.72 12.042a12.276 12.276 0 0 1-.85 4.825c-.389 1.033-2.223 4.331-4.763 8.892l-2.642 4.751c-2.292 4.101-4.659 8.345-4.673 13.603v.053a19.065 19.065 0 0 0 8.31 15.75c4.613 3.58 9.537 5.903 14.298 8.146 6.123 2.888 11.904 5.612 17.11 10.842 7.456 7.5 14.164 15.29 20.651 22.825 7.94 9.218 14.842 17.49 21.494 22.512a18.271 18.271 0 0 0 12.218 3.552 18.33 18.33 0 0 0 12.627-6.306 18.311 18.311 0 0 0 4.462-13.38M6.546 98.662h1.601l1.796 5.088h.017l1.746-5.088h1.588v6.5h-1.083v-5.016h-.022l-1.802 5.016H9.45l-1.799-5.016h-.017v5.016H6.546v-6.5zm-6.546 0h5.262v.983H3.195v5.516H2.056v-5.516H0v-.983z"/>
    </g>
</svg>
