<?xml version="1.0" encoding="utf-8"?>
<!-- Generator: Adobe Illustrator 19.1.0, SVG Export Plug-In . SVG Version: 6.00 Build 0)  -->
<svg version="1.1" id="Layer_1" xmlns="http://www.w3.org/2000/svg" xmlns:xlink="http://www.w3.org/1999/xlink" x="0px" y="0px"
	 viewBox="0 0 485 538" style="enable-background:new 0 0 485 538;" xml:space="preserve">
<style type="text/css">
	.st0{fill:#58595B;}
</style>
<g>
	<g>
		<path class="st0" d="M156.8,18.8l-4.8,30.7L51.7,493.5h30.7L76.9,527H11.4l4.8-30.7l99.7-443.9H88.5L94,18.8H156.8z"/>
		<path class="st0" d="M123.4,528.4c-29.4,0-36.2-17.1-33.5-35.5l75.8-474h34.8l-75.1,469.9c-0.7,4.1,0,6.1,3.4,6.1
			c2,0,3.4-2,4.1-6.1l75.1-469.9h34.8l-75.8,474c-3.4,21.9-13.7,35.5-38.9,35.5H123.4z"/>
		<path class="st0" d="M251.8,18.8h49.9c17.8,0,24.6,10.2,21.2,31.4l-30.1,183c-2,11.6-7.5,19.1-17.1,21.9c4.8,2,14.3,7.5,11.6,23.9
			l-34.8,217.9c-3.4,21.2-11.6,30.1-30.1,30.1h-51.9L251.8,18.8z M245.6,274.3l-35.5,220.6h2.7c2.7,0,4.8,0.7,5.5-4.1l33.5-206.9
			c2-8.9,0.7-9.6-4.1-9.6H245.6z M281.8,50.3l-31.4,193.3h2.7c2.7,0,4.8,0.7,5.5-4.1l29.4-181c2-8.2-0.7-8.2-4.1-8.2H281.8z"/>
		<path class="st0" d="M394.5,18.8L389.1,53h-21.9l-30.1,186.5h20.5l-5.5,35.5h-20.5l-34.8,217.2h22.5l-5.5,34.8h-57.4l81.3-508.2
			H394.5z"/>
	</g>
	<g>
		<path class="st0" d="M323.1,527l81.3-508.2h50.5c17.1,0,24.6,8.9,21.9,26L446,236.7c-2,13-9.6,17.8-15,19.8
			c3.4,2,11.6,6.1,8.9,23.2l-38.2,238.4c-0.7,3.4-0.7,6.1,0,8.2v0.7h-34.1c-1.4-1.4-1.4-4.1-0.7-8.9l37.6-234.3
			c0.7-3.4-0.7-5.5-4.1-5.5h-2.7L357.9,527H323.1z M403,243.6h3.4c4.8,0,4.8-2,5.5-6.8l28.7-178.9c0.7-4.8,0-7.5-3.4-7.5h-2.7
			L403,243.6z"/>
	</g>
</g>
</svg>
