<?xml version="1.0" standalone="no"?>
<!DOCTYPE svg PUBLIC "-//W3C//DTD SVG 20010904//EN"
 "http://www.w3.org/TR/2001/REC-SVG-20010904/DTD/svg10.dtd">
<svg version="1.0" xmlns="http://www.w3.org/2000/svg"
 width="336.000000pt" height="336.000000pt" viewBox="0 0 336.000000 336.000000"
 preserveAspectRatio="xMidYMid meet">
<metadata>
Created by potrace 1.11, written by Peter Selinger 2001-2013
</metadata>
<g transform="translate(0.000000,336.000000) scale(0.100000,-0.100000)"
fill="#000000" stroke="none">
<path d="M333 3341 c7 -9 26 -32 43 -51 45 -51 190 -217 254 -290 30 -35 55
-69 55 -76 0 -7 -127 -141 -282 -298 l-283 -286 0 -92 0 -92 36 35 c242 232
734 721 734 728 0 3 -17 24 -38 46 -20 22 -66 74 -101 115 -36 41 -77 88 -93
103 -15 15 -28 32 -28 36 0 5 108 8 240 7 132 0 240 2 240 6 0 4 -30 33 -66
65 l-66 58 -328 0 c-295 1 -328 -1 -317 -14z"/>
<path d="M1378 3258 c55 -57 147 -152 204 -211 l103 -109 99 104 c54 56 146
151 204 211 l105 107 -104 0 -105 0 -95 -104 c-52 -58 -97 -105 -101 -105 -8
-1 -12 2 -117 117 l-84 92 -105 0 -104 0 100 -102z"/>
<path d="M2308 3291 l-70 -66 246 2 c135 1 246 -1 246 -3 0 -3 -58 -72 -130
-154 -71 -82 -130 -151 -130 -153 0 -5 372 -375 633 -629 l137 -134 0 92 0 93
-289 292 -289 293 96 110 c52 61 100 116 106 121 6 6 40 44 75 85 36 41 73 84
83 96 l18 20 -331 0 -330 0 -71 -65z"/>
<path d="M1003 2573 c-14 -5 -19 -122 -5 -124 4 0 26 -2 49 -4 130 -8 221 -41
258 -93 18 -25 20 -46 23 -260 l3 -232 138 -91 138 -91 -9 -41 c-18 -81 -55
-112 -205 -172 -51 -20 -111 -50 -132 -66 l-40 -28 -33 39 c-84 97 -109 220
-69 337 12 34 21 64 21 66 0 3 -31 4 -70 4 l-69 0 -16 -46 c-9 -25 -19 -81
-22 -124 -10 -136 39 -257 149 -367 l45 -45 -1 -145 -1 -145 28 -27 c71 -68
295 -193 429 -240 l67 -23 71 24 c141 48 427 214 448 260 4 9 7 80 6 158 l-1
142 45 42 c52 49 101 124 128 194 29 78 25 233 -8 311 -12 28 -16 29 -80 31
-38 1 -68 -1 -68 -5 1 -4 9 -32 20 -62 36 -102 22 -212 -38 -299 -50 -73 -62
-80 -100 -52 -18 12 -80 42 -139 67 -123 52 -164 79 -186 126 -38 80 -40 78
114 177 l139 91 0 223 c0 197 2 226 19 257 31 60 114 94 251 104 30 2 58 4 63
5 4 1 7 29 7 62 l0 62 -103 -6 c-212 -11 -344 -92 -372 -226 -4 -19 -7 -117
-7 -218 l0 -184 -98 -64 c-54 -36 -104 -65 -111 -65 -8 0 -58 29 -111 65 l-97
65 -3 207 c-3 198 -4 210 -27 256 -49 95 -161 151 -326 163 -44 3 -84 7 -90 8
-5 2 -16 1 -22 -1z m689 -1111 c9 -24 107 -83 199 -122 57 -24 119 -54 137
-67 l32 -24 0 -122 0 -122 -73 -46 c-78 -50 -184 -105 -258 -133 -43 -16 -50
-17 -93 -2 -66 23 -179 80 -263 134 l-73 47 0 122 0 122 33 25 c17 13 72 40
120 60 105 42 163 74 196 110 25 27 37 32 43 18z"/>
<path d="M340 2027 c-189 -187 -314 -318 -311 -327 5 -23 108 -196 169 -285
71 -103 182 -240 270 -334 l68 -73 -69 -69 -70 -69 37 -47 c233 -299 590 -589
953 -774 l93 -47 0 66 0 67 -102 60 c-277 164 -547 384 -766 626 l-33 36 78
77 77 77 -85 82 c-160 157 -295 322 -405 500 -47 76 -53 91 -42 105 7 9 70 75
139 147 364 375 327 327 324 414 -1 39 -4 73 -6 75 -2 3 -146 -136 -319 -307z"/>
<path d="M2699 2339 c-1 -2 -2 -37 -4 -78 -2 -87 -21 -61 221 -310 78 -80 167
-173 197 -205 l56 -59 -16 -31 c-78 -151 -266 -390 -443 -562 l-84 -83 77 -77
76 -77 -82 -90 c-189 -207 -509 -460 -749 -592 l-68 -37 0 -68 0 -69 98 51
c217 112 468 284 613 419 14 13 43 40 65 60 62 56 184 187 248 267 l58 72 -69
70 -70 70 55 58 c170 178 325 388 430 586 l31 58 -97 95 c-53 52 -197 194
-319 315 -123 122 -224 220 -224 217z"/>
</g>
</svg>
